/* XPM */
static char *_917a579c7594f0393c572870f0c0b95CT1408Olsw1V9F4R[] = {
/* columns rows colors chars-per-pixel */
"64 64 157 2 ",
"   c None",
".  c #000000",
"X  c #090B09",
"o  c #11100E",
"O  c #1B1B14",
"+  c #131B1C",
"@  c #191E1F",
"#  c #15201F",
"$  c #1E2016",
"%  c #24251A",
"&  c #262C1A",
"*  c #1A1F20",
"=  c #162123",
"-  c #1A2426",
";  c #1A262A",
":  c #1C2A2C",
">  c #17252A",
",  c #1E2D31",
"<  c #202627",
"1  c #2F2C22",
"2  c #212728",
"3  c #222B2D",
"4  c #282E2F",
"5  c #312E24",
"6  c #2E3520",
"7  c #212E31",
"8  c #282F30",
"9  c #213135",
"0  c #293133",
"q  c #26363B",
"w  c #293639",
"e  c #27383C",
"r  c #293A3E",
"t  c #313C3D",
"y  c #6B3535",
"u  c #733233",
"i  c #793132",
"p  c #3B4629",
"a  c #3B4339",
"s  c #4F4D3C",
"d  c #474332",
"f  c #534D38",
"g  c #5A553E",
"h  c #2B3E43",
"j  c #313F41",
"k  c #2D4045",
"l  c #334345",
"z  c #3E4646",
"x  c #33464A",
"c  c #37494B",
"v  c #3A4B4D",
"b  c #3C4F51",
"n  c #364D50",
"m  c #3E5154",
"M  c #3D575E",
"N  c #4F4849",
"B  c #444C41",
"V  c #534444",
"C  c #425355",
"Z  c #4C5353",
"A  c #445758",
"S  c #465A5B",
"D  c #485C5E",
"F  c #515E5E",
"G  c #625C42",
"H  c #696246",
"J  c #6B6449",
"K  c #716B4D",
"L  c #787150",
"P  c #415C64",
"I  c #525F60",
"U  c #426060",
"Y  c #45636C",
"T  c #4A6B6A",
"R  c #5A6566",
"E  c #5A6768",
"W  c #5D6B6C",
"Q  c #546061",
"!  c #4C706E",
"~  c #4B6A74",
"^  c #4E7472",
"/  c #507673",
"(  c #51737F",
")  c #557D7C",
"_  c #616D6D",
"`  c #666F70",
"'  c #677677",
"]  c #6F7E7E",
"[  c #767777",
"{  c #777878",
"}  c #7B7C7C",
"|  c #842F30",
" . c #923031",
".. c #807957",
"X. c #56817F",
"o. c #8A825E",
"O. c #938B62",
"+. c #ACA377",
"@. c #ABA379",
"#. c #B5AB7E",
"$. c #B8AE7F",
"%. c #B0A67A",
"&. c #ADD074",
"*. c #568282",
"=. c #598686",
"-. c #5C8D8D",
";. c #5A8886",
":. c #5C8E90",
">. c #5E9191",
",. c #678586",
"<. c #7F8080",
"1. c #7A8B8B",
"2. c #619695",
"3. c #649C9D",
"4. c #6D9493",
"5. c #779F9F",
"6. c #669FA0",
"7. c #69A2A3",
"8. c #6AA9AA",
"9. c #67A2A3",
"0. c #7BA6A6",
"q. c #848585",
"w. c #8A8B8B",
"e. c #849594",
"r. c #929394",
"t. c #9A9B9C",
"y. c #B7AE80",
"u. c #B8AF81",
"i. c #B9B182",
"p. c #86A5A5",
"a. c #81A3A3",
"s. c #89B2B2",
"d. c #8AB4B4",
"f. c #A3A4A4",
"g. c #ABACAD",
"h. c #AEB1B2",
"j. c #B1B2B2",
"k. c #A6CFCF",
"l. c #A5CFCF",
"z. c #A7D0D0",
"x. c #A7D0D0",
"c. c #A9D2D2",
"v. c #A8D1D1",
"b. c #AAD4D5",
"n. c #ABD6D6",
"m. c #AAD4D4",
"M. c #ACD7D8",
"N. c #AEDADA",
"B. c #AED9DA",
"V. c #B1DDDE",
"C. c #B5E2E3",
"Z. c #B9E6E7",
"A. c #B8E7E8",
"S. c #BCECEC",
"D. c #BFEFF0",
"F. c #BFF1F1",
"G. c #C2F4F4",
/* pixels */
"      < 2 2 2 2 < - = = - ; ; ; ; ; ; ; ; ; ; ; ; ; ; ; ; ; ; ; ; ; ; ; ; ; ; ; ; ; ; ; ; ; ; ; ; ; ; ; : : : : : , , , ,       ",
"      2 2 2 2 2 - - - - , , 7 7 , , , , , , , , , , , , , , , , , , , , , , , , , , , , , , , , , , , , , , 7 7 7 9 7 7 7 ,     ",
"    2 2 2 2 2 2 9 9 9 9 9 9 9 9 9 9 9 9 9 q w w r r r r r h h h r r r r r r r w w q 9 9 9 9 9 9 9 9 9 9 9 9 9 9 9 9 9 9 9 ,     ",
"    2 2 2 2 2 2 9 9 9 9 9 9 q h n.c.z.k.k.k.k.k.c.n.N.V.C.A.S.F.S.Z.C.N.M.n.c.z.k.k.k.k.z.c.m.n.9 9 9 9 9 9 9 9 9 9 9 9 9 9     ",
"  2 2 2 2 2 2 2 3 9 9 9 9 9 9 9 9 9 q r r r h h l l l l x x x x x x x l l l l h h r r w 0 9 9 9 9 9 9 9 9 9 9 9 9 9 9 9 9 9 9   ",
"  2 2 2 2 2 9 9 9 9 9 9 9 9 9 + + + + + + + + + + + + + + + + + + + + + + + + + + + + + + + + + + = 9 9 9 9 9 9 9 9 9 9 9 9 9   ",
"2 - - < 9 9 9 9 9 9 9 9 9 , + + 9 7 7 7 7 7 7 7 7 7 7 7 7 7 7 7 , , 7 7 7 7 7 7 7 7 7 7 7 7 7 7 + + + 9 9 9 9 9 9 9 9 9 9 9 9 7 ",
"= ; : 9 9 9 9 9 9 9 9 9 : + + 9 9 8 0 0 0 0 9 9 9 9 9 9 7 0 0 0 8 8 8 8 0 0 0 0 0 0 0 0 0 0 9 9 9 + + + 9 9 9 9 9 9 9 9 9 , : : ",
"= ; : 9 9 9 9 9 9 9 9 = + + 9 9 0 4 + 2 2 2 2 2 2 2 2 2 2 2 2 2 2 2 2 2 2 2 2 2 2 2 2 2 2 + 4 8 9 9 = + + 9 9 9 9 9 9 9 9 , ; = ",
"= ; : 9 9 9 9 9 9 9 + + + q q q 4 + 8 q q q q q q q q q q q q q q q 0 0 0 0 0 q q q q 0 8 8 + 4 8 0 q - + + 9 9 9 9 9 9 9 , ; = ",
"= ; : 9 9 9 9 9 9 + + + q q q 8 + 0 q q q q q q q q q q q q q q q q q q q q q e q q q q q q 8 + 8 0 q q : + + 9 9 9 9 9 9 , ; = ",
"= ; : 9 9 9 9 9 + + + q q q 0 + e q q q q q q q q q q q q q q q q q q q q q q e q q q q q q q 7 + 0 e e q 7 + + 9 9 9 9 9 , ; = ",
"= ; : 9 9 9 r ; + + q q q 8 + e q q q q q q q q q q q q q q q q q q q q q q q q q q q q q q q q 7 + 0 q q q 9 + - r 9 9 9 , ; = ",
"= ; : 9 9 9 h ; - q q q 8 + e q q q q q q q q q q q q q q ^ / / / / U q q q q q q q q q q q q q q : + 0 q q q = - h 9 9 9 , ; = ",
"= ; : 9 9 9 n.7 - e e 0 + q e e e e e e e e e e e e e e e ) p.9 9 9 9 e e e e e e e e e q q q q q q ; + 8 q q = - n.9 9 9 , ; = ",
"= ; : 9 9 q n.0 - e e 0 : e e e e e e e e e e e e e e e e =.p.e e e e e e e h ! ! T e e e e e e e e e : 0 e e = : n.9 9 9 , ; = ",
"= ; : 9 9 w c.w - e e 0 : e e e e e e e e e e e e e e e e -.p.e e e e e e e h X.*.^ e e e e e e e e e : r e e = 3 c.q 9 9 , * = ",
"= ; : 9 9 r c.w - e e 0 : e e e e e e e e e e e e 3.s.d.s.s.p.e e e e e e e h >.2.*.e e e e e e e e e : e e e = 7 c.w 2 2 - * = ",
"= ; : 9 9 r z.w - e e e , e e e e e e e e e e e e 6.h e e e e e e e e e e e h 7.8.:.e e e e e e e e e : e e e = 7 c.A R R R E = ",
"= ; : 9 9 r z.w - e e e , e e e e e e e e e e e e 3.h e e e e e e e e e ,.5.0.9.8.7.0.4.e e e e e e e : e e e = 0 z.W f ..H o : ",
"= ; : 9 9 r z.r - r r r , r r r r r r r x / ) ;.>.2.h r r r r r r r r r r n -.2.2.>.=.r r r r r r r r : r r r = 0 z.F 5 O 6 . 3 ",
"= ; : 9 9 h z.r - r r r , r r r r r r r x a.q q q q r r r r r r r r r r r r r X.*.) r r r r r r r r r : r r r = 0 z.F K O p . 3 ",
"= ; : 9 9 h z.j - r r r , r r r r r r r x a.r r r r r r r r r r r r r r r r r r T r r r r r r r r r r : r r r = w z.F o.$ & . 3 ",
"= ; : 9 9 l z.l - r r e 3 r r r r r r r x a.r r r r r r r r r r r r r r r r r r r r r r r r r r r r r : r r r = w z.I G % &.. 3 ",
"= ; : 9 9 l z.l ; r r r 3 0 r r r r r r r a.r r r r r r r r r r r r r r r r r r r r r r r r r r r r r : r r r = w z.Q O . X X : ",
"= ; : 9 9 l z.x : r r r 3 8 8 8 8 4 0 r r r r r r r r r r r r r r r r r r r r r r r r 4 w r r r r 8 8 : r r e = w z.l z z z z = ",
"= ; : 9 9 l c.c : r r r B %.#.u.+.+.+.+.$.$.#.#.#.@.@.@.#.u.u.u.u.@.@.@.@.i.i.y.i.@.@.@.@.u.u.#.#.@.+.> r r e = r c.x , 7 : ; = ",
"= ; : 9 9 x c.v : r r r a O.O.5 5 5 5 O.O.O.O.d 1 5 5 o.O.O.O.O.5 5 5 5 O.O.O.O.5 5 5 1 O.O.O.O.1 5 5 : r r r = r m.E . . . t ; ",
"= ; : 9 9 x n.b : r r r a H 5 5 5 H O.O.O.O.5 5 5 5 O.O.J O.J 5 5 % G O.O.O.K 5 5 5 g O.O.O.L 5 5 5 f ; r r r = r n.W + + + z ; ",
"= ; : 9 9 c M.m : r r r 0 s s s s s s s s s s s s s s s s s s s s s s s s s s s s s s s s s s s s s s ; r r r = j M.R | ] V _ ; ",
"= ; : 9 9 v N.C 3 r r w : 0 r w r r r r r r r r r r r r r r r r r r r r r r r r r r r r r 4 0 r r r 8 : r r r = j N.E u ' N _ ; ",
"= ; : 9 9 v V.A 3 h h 8 : h h h h h h h h h h h h h h h h h h h h h h h h h h h h h h h h h h h h h h : h h h = l V.W i W Z _ ; ",
"= ; : 9 9 v V.A 3 h r 0 , e r h h r h r h h h r r r r r r r h h h h h h r r r h h h r r r 4 4 4 h h h : h h h = l C.W u W V E ; ",
"= ; : 9 9 v C.S 3 r w 4 ( ( ( ( ~ : h r h h h r r r r r r r h h h h h h r r h h h h r r r : ; Y Y Y Y P h h h = l Z.W  .1.y ` ; ",
"= ; : 9 9 b Z.S 3 r w 8 k h h h k : h h h h h h h h h h r r r r r r h h r r r r h h h h h : : k h h h h h h h = l S._ Z E C e.; ",
"= ; : 9 9 b S.D 3 r h h h h h h k : h h h h h h h h h h h h h h h h h h h h h h h h h h h : : r h h h h h h h = l S.v < 2 - * = ",
"= ; : 9 9 b S.D 3 h h h h h h h k : h h h h h h h h h h h h h h h h h h h h h h h h h h h : : k h h h h h h r = l G.m 9 9 , - = ",
"= ; : 9 9 b F.D 3 h h h h h h h h ; h h h h h h h h h h h h h h h h h h h h h h h h h h h : : k h h h h h h 8 = l G.C 9 9 , ; = ",
"= ; : 9 9 b F.D 3 h h h h h h h h ; h h h h h h h h h h h h h h h h h h h h h h h h h h h 9 : k h h h h h h h = l G.C 9 9 , ; = ",
"= ; : 9 9 b S.D 3 h h h h h h h h ; h h h h h h h h h h h h h h h h h h h h h h h h h h h 9 : h h h h h h h h = l D.m 9 9 , ; = ",
"= ; : 9 9 b S.D 3 h h h h h h h k : 0 h h h h h h h h h h h h h h h h h h h h h h h h h h 9 : h h h h h h h h = l S.m 9 9 , ; = ",
"= ; : 9 9 b Z.S 3 h h w 8 8 8 r k : 8 h h h h h h h h h h h h h h h h h h h h h h h h h h 9 : h 8 8 8 8 8 h h = l Z.m 9 9 , ; = ",
"= ; : 9 9 v C.S 3 h h w # + + + + + 8 h h h h h h h h h h h h h h h h h h h h h h h h h h 9 + + + + + = w h h = l C.m 9 9 , ; = ",
"= ; : 9 9 v V.A 3 h h w , h h h 4 4 0 h h h h h h h h h h h h h h h h h h h h h h h h h h h h h h h h : r h h = l V.b 9 9 , ; = ",
"= ; : 9 9 v N.A 3 h h w , h h h h h h h h h h h h h h h h h h h h h h h h h h h h h h h h h h h h h h : h h h = l B.b 9 9 , ; = ",
"= ; : 9 9 v N.C 3 h h 0 , h h h h h h h h h h h h h h h h h h h h h h h h h h h h h h h h h h h h h h : h h h = j N.v 9 9 , ; = ",
"= ; : 9 9 c n.m 3 h h 0 : 9 9 9 9 0 8 w h h h h h h h h h h h h h h h h h h h h h h h h h 3 , 7 7 9 9 : h h h = t n.v 9 9 , ; = ",
"= ; : 9 9 x n.v : h h 0 m M M M M : 8 h h h h h h h h h k k k h h h h h h h h h h h h h h 3 ; Y Y Y Y P h h h = r n.v 9 9 , ; = ",
"= ; : 9 9 x c.v : h h h h h k k k : w h h h h h h h h h k k h h h h h h h h h h h h h k k 3 : h h h h h h h h = r c.x 9 9 , ; = ",
"= ; : 9 9 l z.c ; h h h h h k k k : r h h h h h h h h h h k h h h h h h h h k k h h h h k 3 : h h h h h h h h = w c.x 9 9 , ; = ",
"= ; : 9 9 l z.x - h h h h h h k k : h h h h h h h h h h h h h h h h h h h h k k h h h h k 3 : h h h h h k h h = w z.l 9 9 , ; = ",
"= ; : 9 9 l z.l - h h h h h h h k : h h h h h h h h h h h h h h h h h h h h h h h h h h 0 3 : h h h h h k k h = w z.l 9 9 , ; = ",
"+ ; : 9 9 l z.l - h h h h h h h k : k h h h h h k k k k h h h h h h h h h h h h h h h h h 3 : h h h h h h h h = w z.l 9 9 , ; = ",
"+ ; : 9 9 h z.j - h h k h h h h k : k h h h k k h h k k h h h h h h h h h h h h h h h h h 3 : h k h h h h h h = w z.l 9 9 , ; = ",
"+ ; : 9 9 h z.r - h h r 8 h h h k : k h h h k k h h h h h h h h h h h h k k h h h h 8 0 h : : 8 k k h h h h h = 0 z.h 9 9 , ; = ",
"+ = : 9 9 r z.r - h h w 4 4 4 4 0 : k h h h h h h h h h h h h h k h h h h k k k h 8 8 8 h 9 : 4 4 4 4 0 h h h = 0 z.h 9 9 , ; = ",
"+ @ : 9 9 r z.w - h h 8 - : 7 9 9 q k h h h h h h h h h k h h h w h h h h h h h h 8 8 0 h q 9 9 7 : : : h h h = 8 z.w 9 9 , ; = ",
"+ @ - 9 9 w c.w - h h 8 , h h k q r 0 8 4 4 4 4 4 4 4 4 4 4 4 3 4 3 3 3 3 3 4 8 4 8 8 9 9 0 w e h h h : h h h = 3 c.0 9 9 , ; = ",
"+ @ - 9 9 0 c.w - h h 0 , h h h 7 x x x x x x x x x x x x x x x x x x x x x x x x x x x x x k , h h h : h h h = : c.8 9 9 , ; = ",
"+ @ - 9 9 4 m.w - h h h , h h h 9 h h h h h h h h h h h h h h h h h h h h h h h h h h h h h q , h h h ; h h h = ; m.4 2 9 , * = ",
"+ @ - < < 2 n.0 - h h h : 4 r h 9 h h h h h h h h h h h h h h h h h h h w r h h h w 0 w r h q , h h h : h h h = - n.2 2 3 , * + ",
"+ @ - < < < M.: - 8 h h : 8 8 h , - - - - - - - - - - - - - - - - - - - - - - - - - - - - - - , h h 8 : 0 h 4 = - M.2 2 2 - * + ",
"+ @ - < < 2 M.; - 8 w h : 8 8 0 r h h h h h h h h h h h h h h h h h h h h h h h h h h h h h h k h w 8 : 0 8 8 = - N.2 2 2 - * + ",
"+ @ - < 2 2 r q h.j.j.j.h.j.g.g.f.f.t.t.r.r.w.w.q.q.<.} } } { { [ { { } } } <.q.q.w.w.r.r.t.t.f.f.g.g.h.j.j.j.g.- 9 2 2 2 - * + "
};
