/* XPM */
static char *fdc4579b3ee54a06e1e0e39b66dea17a4PRp0FHXVOonivPT[] = {
/* columns rows colors chars-per-pixel */
"64 64 109 2 ",
"   c #181717",
".  c #171918",
"X  c #1D1D1D",
"o  c #201F1F",
"O  c #1F201F",
"+  c #20201F",
"@  c #1F1F20",
"#  c #201F20",
"$  c #1F2020",
"%  c #232323",
"&  c #282727",
"*  c #272827",
"=  c #282827",
"-  c #272728",
";  c #282728",
":  c #272828",
">  c #2A2A29",
",  c #30302F",
"<  c #302F31",
"1  c #313231",
"2  c #383736",
"3  c #373837",
"4  c #3A3A3A",
"5  c #4C4D4D",
"6  c #565555",
"7  c #5F6060",
"8  c #656565",
"9  c #6C6C6C",
"0  c #716F6F",
"q  c #71706F",
"w  c #6F7071",
"e  c #747475",
"r  c #777779",
"t  c #777878",
"y  c #7B7B7B",
"u  c #7F8080",
"i  c #858485",
"p  c #878788",
"a  c #8C8C8C",
"s  c #908F8F",
"d  c #908F90",
"f  c #939393",
"g  c #979897",
"h  c #989897",
"j  c #979798",
"k  c #9C9C9C",
"l  c #A09F9F",
"z  c #9FA09F",
"x  c #A0A09F",
"c  c #9F9EA1",
"v  c #A09FA0",
"b  c #9FA0A1",
"n  c #A4A4A4",
"m  c #A8A7A7",
"M  c #A8A8A7",
"N  c #A7A7A8",
"B  c #A8A7A8",
"V  c #A7A8A8",
"C  c #ACACAC",
"Z  c #B0AFAF",
"A  c #AFB0AF",
"S  c #B0B0AF",
"D  c #AFAFB0",
"F  c #B0AFB0",
"G  c #AFB0B1",
"H  c #B4B4B4",
"J  c #B8B7B7",
"K  c #B7B8B7",
"L  c #B8B8B7",
"P  c #B7B7B8",
"I  c #B8B7B8",
"U  c #B7B8B8",
"Y  c #B9B9B9",
"T  c #BBBBBA",
"R  c #BCBBBB",
"E  c #BCBCBB",
"W  c #BBBBBC",
"Q  c #BDBBBD",
"!  c #BBBCBC",
"~  c #BDBCBC",
"^  c #C0BFBF",
"/  c #BFC0BE",
"(  c #C0C0BF",
")  c #BFBFC0",
"_  c #C0BFC0",
"`  c #BFC0C0",
"'  c #C3C3C3",
"]  c #C4C3C3",
"[  c #C4C4C3",
"{  c #C5C4C3",
"}  c #C3C3C4",
"|  c #C4C3C4",
" . c #C3C4C4",
".. c #C5C4C4",
"X. c #C9C7C7",
"o. c #C7C8C7",
"O. c #C8C8C7",
"+. c #C7C7C9",
"@. c #C8C7C8",
"#. c #C7C8C8",
"$. c #C9C8C8",
"%. c #CBCBCB",
"&. c #CCCBCB",
"*. c #CCCCCB",
"=. c #CECECE",
"-. c #D0CFCF",
";. c #D0CFD0",
":. c #D2D1D2",
">. c #D4D3D2",
/* pixels */
"C C H z P V H C C n k m V C C m n f m k C C k n H C n C n k V C C k k f ' C n n n n s n H N N C k C n n H P H C H C n V P H Y k ",
"C ~ H Y ~ ' Y H H H C | $.Y ~ +.~ E _ Y C ^ Y H ....' ' Y C ..P Y R ~ Y ..Y Y ~ | ~ Y C ' H C $.Y ' Y ( ..C H ..Y E ~ ~ Y +.{ P ",
"C ~ ^ H o.*.Q ' R $.' H ~ C { >.~ ~ ' ~ R ~ Y ' $.' ..P $.Y ~ Y P ~ ~ Y | $.~ Y P m Y $.' ' ..C P L ' $.` ' P E ' ..P ..C ' ~ k ",
"Z V ~ H ~ Y H P P V P Y P V V P H P P P H ! C ~ _ P H J Y V P V V P P H P H Y ~ H C P H H Y Y C n n P H ~ E P n P n P | n H H C ",
"k V ' Y E { ~ ..$...$.Y ~  ...' $.~ ..P ..P Y ..Q H H ' ] $.+.P P ~ ' P H H ~ ~ Y ..' ' H I ' Y Q ..' H ~ { P } V C X.P Y P ~ H ",
"n P ..$.$.C ~ ~ :.C ' @.H ^ H ~ H H #.P R J $.' _ L H $.~ L $.&.Y $. ...$.~ o.....Y Y ..' Q ^ P ~ $.H ~ P =.Q $.n C { ~ ' ..' C ",
"n H H H Y H P P X.P Y H H n k n H P Y H C H V ~ ~ P P ~ P H m ..Y Y Y C Y G C P ..~ ' O.~ V H n B $.P P Y $.C C n F n W H E Y k ",
"A Y P ' ..H e % % % + % % % > % % % ~ Y =.~ Y R H H ' ..' Y ~ H R P ~ ..I ..~ Y P P P Y C H % % % : % > % X % X % n Y ' ^ Y P H ",
"C ~ P P P V e % % % % X % % X % % % p f H ' Y ~ ' Y ' Y Y ~ Y ..Y ' ..~ ~ P ~ ~ $.P P ' n p % X % % X X % X % % % k H ] C ~ ' k ",
"V ' ~ ~ H H e X % X X % X + % % % & a n n J Y ' ^ H ' P $.' P ' ~ ..' H Y ' | ~ ' X.$.' p e % % % % X X X X % % % f C ' H C R V ",
"C ~ ' P ;.P e % % % % % % % @ % % > > % % Y ~ $.| C ( Y C ' ' $.~ #.~ ) ] @.^ ~ { ~ $.= % % > % X % % % % X X X X f ..~ ..' P f ",
"H X.' Q $.P y % % X @ % % % > X % % % % % C Y Q ..C ) U Y P C ' Y ' Y Y _ ' ' ) :.n H 1 % X % X # % % % % $ % O O k Y ' ~ C V S ",
"V P Y V Y P w % % O X % X X % X X o X % % a f P ~ P n H I V H ~ C Q I n V H H ~ ~ K f % % % = % X % % % % % + X % j ~ P k P P k ",
"n ~ ..P ~ ..y % > % % > % > % % & X % % % % e Y ..~ ~ ' H P ' ) H ' L ~ ....{ ~ ..* % % % X % % % X % % X % + % & p ~ ' H ^ Y ~ ",
"k Y C P ..P 9 % % X X X + % % % X % % % % % 8 x ~ P ) P ' P / ..P $.$.~ } $.P ' V % % % % $ % % X % % X o % % X X a Z Y H $.' _ ",
"f C Y C H C 8 X X X + % O % % % X % X X % o 5 p P H Y Y V C P V C C Y V P P Z H f X % % % % % X % X X X X % X X X f H C H P P n ",
"n ~ =...$.H e % X % % X % % % % X X % > % % % % n ' X.~ ' L ' =.~ Y ;.~ ~ -.P ' % % % X % X * > % & : % % % % X % k R ..H P H n ",
"~ ..' ~ ' W y X X % > X % % X % % % # % % % X % V V =.' _ ' ~ ..>.=.&.' ' ~ Y n % % % X X X % % X % X % % % % % % s Y ~ H Y ~ C ",
"f ( P W I J 9 % X X % X X X % O X % X X # # X % 5 n C H Y C H H C Y V C P C S 6 % X % % X + % % X X % X % X X % % i H P C P =.f ",
"' ' P P $.~ t % > % % X % % > % + % > % % % X $ % g C H P P ' P C ..Y C P C h % % % % @ % % % % X % % % > X X + > k P o.F ' $.f ",
"I ..=.P ' ` e % > % % % % % % % % % % % > % % % * f V ~ ..} ' Y V ~ Y ' Y n y % % % % % % % > % % * % % X % + X % a H ' Y ' ' n ",
"C H ~ Y ..P y X X X % % X X O % X % O % % % % % % % , J H Y P ~ C =.' R A & % % > % X X X X % X % % X X % % X X X f H $.) ..Y L ",
"V ~ $.' ' Y e % % % % X X o % % X @ % % % % > > % % > Z ] Y V Y ~ ..H Y Y % % X 1 % % X X X % % # # % % % % % X % a C ' ....~ F ",
"P $...H ~ P i X X % % X % % % % % X X # % % % > % % % f ~ | $...' J Y M P % % % % % > % % % % X @ % > % X X X X % f P C Y ~ } C ",
"C P ..C H C u % % X O X % X % % % 5 % % % % % & $ % % > V n ..Y ~ Y ..V > % % % % % % % % % 7 X X % % # @ X % % % f ' Y H ~ ) C ",
"k P ..H ~ P 9 % X X % O % % % % % p % % - % % % % % % > n F =.~ H ~ Y H % % X % > % % % % % 0 % X % % % % @ % % X f ..Z J P ' V ",
"n ~ ..P ] ..9 % > % > > X X > + % G = % % % X % % % = % a P C ~ ~ P n c % = % % % X % > : > k % % > $ % % % $ % % f H P ~ *.$.H ",
"n Y Y ~ ~ P e % % # X % X X > % % ~ n k & % X % % X % % : 3 H H ' H 1 % % X X % % % % % p H C % % % % X O % X % % f P X.n ^ R n ",
"n P $.P ' _ e % O % % % X X % : % ^ n x % % % > % X % X % : J ..R C & % % % % % % % % % n C P % % % > % X % % % % k ~ ' Y Y H Y ",
"V Y ..Q ~ C i % X % X % % % % > % Y ~ C > > % % X X % % % % k F N p % % > % % X % % ; % V C P % % % % % X X X % > f C P P P ' C ",
"n ' $.P Y J e % % % % % # % X % % C _ H C % % X % % + % X % % f n % X % % X % % % % % n ....~ > % % % % % % X # % f K ' P J $.H ",
"n ` ..Y ' _ e % % % % % % X % % % H ~ U a % % O % X % X % % X q e % % % % X O % % % - C $.H ~ % % % % $ > % X % + f ( $.Y H | n ",
"C ~ =.' ..~ e % X % X % % % X % % P ..Y ' < % % % % > X % % % % % X X # % X % > % % > ) ' ^ $.% X % X @ o X % % > C ~ ~ ..{ O.P ",
"Y P H ` ~ ' y % % % X % > % % @ % ~ C ' ' V 8 % X % % % % X % % % % % % % X X % % k k H ~ C P % X X % X % % % X - n ..~ C E P V ",
"V H $. ...H y % % % % % > % % X % Y P ~ ~ I 9 % % % % X % X % % % % % % % % % % % n C F ~ C H % % + % % % % % % % k n ] H H Y n ",
"n ' ..H $.P y % % $ O X % % % > % C _ Y R ..i % % % % X % X % X + % % % % % o % % ~ C ' Y Q Y % % % % % % X % o X b P Y V { $.Y ",
"C ' ..~ ~ H p % X % % % X % % X % J ' Y ....~ k % % % > % % % % % X o % % + X % S V ..&./ E ] > % X % X X X X % % n ' ' ..^ P ~ ",
"C Y $.~ ' H y X % % % % % % % % % Y Y ' Y X.V f $ $ % > % % % > X X % X % % % % n P E ..H Y ' % % % % X % @ X % + p P >.Y ' H C ",
"F P { ~ ..H 9 % % X % % % X X > > P ~ ' Y ' P H % * > % * % % % % % + + % % % > Y ' ~ O.~ H Y % X X % $ % % @ % > V ..' ' P ~ V ",
"Y ~ ~ ~ ~ ( 9 % > X % X % % % % % ..Y Y ..C ..( l > % % % % % > % X X % % X > Z ..L ~ Y P ] W % X X X X = % X % % V ;.$.~ ~ ! n ",
"n ' H C Z H e X % X X % X X X % : V V H V P C ' C > % X X X % % X @ X o X X % V ' P Y H Y Y C X X % % X X X   X % a C P H H H ' ",
"n Y J Y _ n y % % % % % @ X % % % ..Y I Y ~ Y ~ ~ 1 % % % % > % X % X X % % 4 Q P Q ..P R P ~ % % % : % % X X X % a H L H ^ ] ~ ",
"k H P P ' H e % X % % % % % > % % ~ H ^ ~ ' ~ ~ o.p a % % % % % % % % O % p n Y ' ' ~ P ~ Y L % o % > X % X X % % k P Y J P L f ",
"H P U Y ^ P 9 % % % % % % % : % % C ..~ J ' ' ~ H H V % % X % % X X % % * k H H _ H P H } Y F % o % % % % % X % $ a C H D V $.V ",
"k ~ ~ ' ' C 9 % % % % % % % % > % H Y P H ' Y ~ P C n 1 X $ > X X X % > > Y P ~ ' P ~ ' Y P ~ > % % X % % % % % % f V F Y ~ Y V ",
"v P ..P ` H 9 + % % % % X X X % % H O.~ ~ Y Y ' C ~ Y V % % O % + X o % n Y Y ' ~ C &.~ H C Y % % % % % X X X + % n ..Q P ' ~ n ",
"H Y H H J H e % % X + X % O % $ X Y ~ ] H V Y P ^ P / H > % % + X % % % V Y H H Y P ' ~ ~ P V % + % X X X X X X % d P ' P C ' z ",
"H ..P H ] C y % % X % X % X % % X C ~ ~ | ' P $.Y Y V C 2 > > % % % > 1 H ~ Y ~ W V H ..Y ~ H % % % % % % X % X % f H ' Y P P C ",
"C ' ..~ P ~ w % % X X % % o X > % H G C / P P ( H V Y Y A H C C P k k n P A H Y L H J ..L C Y % % % % % X X X X % n V C Y P ' C ",
"H P V H ..Q 9 % X $ X % % % % % % n Y P ' ..+.$.' Q Y C Y H Y ..H Y $.W P ' Y ' { P P ' P P ..% % X X X X $ o X + f n ' P P ~ n ",
"n ( C P $.H e % X % % X X X % % X n P H P `  .' ' P J H H Y Y ' ^ P ' ..~ ' ~ H ~ ' H Y ~ Y ~ % % X X X X X X X X f ..H V V Y k ",
"Y P Y C H I e X % % % % % % X X % ' ~ ~ Y Y P :.^ K ~ Y P P H ..Y Y R H H $...~ / Y ' ' ' H ~ % % % X % % % O % % p C ( Z W ~ n ",
"V ' R ..J S e # % X X > X X X % X ^ #.P ~ Y Y ` Q V ~ ' ' Y ' P ~ P C P ^ ~ H P P H P ..) P Z % X % % % X X X % X n P ' ~ ) ~ n ",
"H ~ ~ ~ H V i X % X X > X X % % % Y P Y R =.Y ^ C H ~ Y H H ' ~ H ~ ..~ ( ' Q P Y P P ' P Y L % X % % X % % X X X a _ ..H ~ ~ n ",
"n C ~ ...._ r X % % % o % X % > > H ~ C ..$.C +...H ' P P C Y *.P Y ~ H ~ ' Y Y ( ~ ( ( ~ ' P % % % . X % % % % # y P Y C P ' V ",
"Y ] P ~ ~ n e > % % X % > % > : - P $.' Y ..P ~ Y ~ ' W ! ..E I C ~ Y P H H Y ....H P C X.P P % % % X % = X % % % a H Y J Y ..B ",
"C S ~ Y ' k i % % % % & & % X % * Y ..P ( H m Y F P P R Y P ' H C Y ~ H H P V o.| P H ' _ Y H + X % % X % X % X X f n Y P H ~ n ",
"n $.=.n Z _ P C n l C Y ) P Y H ~ / ~ W ] L ~ ' H ' Y / ~ Y ' ~ H ~ P Y ..~ I ' P C Y Y J ] Y n P P Y V I C V V V C H P J ~ ` Y ",
"~ Q ' H ~ Y H ' I P C ] C C H $.Y Q $.Y ' ..Y ' ~ ~ ..Y Y Y $.P ' ' ~ R H V ~ P ' P $.Y ..~ P Y Y ' ..R $.Y P { ~ H ~ P R ..' C ",
"P P C H ~ Y Y ~ ^ P P Y C H P I Y P ~ H Y D C P Y P ~ Y ~ ' P ~ C ~ H P C ~ / H Y H P ..Y H Q H H H Y ' ) H V Y V C ' K n V H H ",
"L Y C ~ ..~ ~ ~ ~ Y P ' Y ' ~ ~ H H ' H ~ H ) P I Y ( P P Y ` Y P ~ ~ ( ....Y ....' H Y { ~ ' ~ Y C =.P _ Q H C ~ ~ ] ~ Y E H M ",
"P P ' Y ~ ~ Y H ~ W ' ' J P ' $.J Y V ' ' ' K ~ Y ~ ' P Y Y  .P P ' ~ P ` ' H ..Y Y O.Y ' ~ H Q H ~ Y ~ X.H ..~ ~ ' ~ m S C ~ x ",
"P ~ ..H H C U ' P Y P V Y P V ' P V P ' H H n P R J Y | Y H ' P H C ] Y Y V Y Y ' P ' Y ..J H P C P ~ Y ~ C C Y ~ ' C H C ~ H V ",
"F ' J C P H H C Y H P P H n Y H n H R C Y P Y C H ~ M C ~ H Y R Q ' ' Y ~ ' S C ~ P P ! C ] P ..C ' H V V P P ' G F H P Y Y P n "
};
