/* XPM */
static char *_0eab4756ccd40a3e6fcbd3e9ee8b315IXCDVw3TStrq9PVR[] = {
/* columns rows colors chars-per-pixel */
"64 64 139 2 ",
"   c #0b0a0a",
".  c #000000",
"X  c #080A06",
"o  c #0A0B0B",
"O  c #11100E",
"+  c #1B1B14",
"@  c #131B1C",
"#  c #191E1F",
"$  c #1E2016",
"%  c #24241B",
"&  c #28261E",
"*  c #262C1A",
"=  c #2A281F",
"-  c #1A1F20",
";  c #162123",
":  c #1A2425",
">  c #1A262A",
",  c #1C2A2C",
"<  c #1E2D31",
"1  c #1F3234",
"2  c #202627",
"3  c #2C2A21",
"4  c #212728",
"5  c #212B2D",
"6  c #282E2F",
"7  c #312E24",
"8  c #2E3520",
"9  c #363327",
"0  c #3F3B2C",
"q  c #212F32",
"w  c #282F30",
"e  c #213135",
"r  c #283234",
"t  c #233638",
"y  c #293639",
"u  c #2A3A3E",
"i  c #313C3D",
"p  c #6B3535",
"a  c #733233",
"s  c #793132",
"d  c #3B4629",
"f  c #454231",
"g  c #4B4735",
"h  c #514B37",
"j  c #534F39",
"k  c #55513B",
"l  c #2B3E43",
"z  c #313F41",
"x  c #2D4045",
"c  c #334345",
"v  c #3E4646",
"b  c #364649",
"n  c #37494B",
"m  c #3A4B4D",
"M  c #354C52",
"N  c #3C4F51",
"B  c #3F5153",
"V  c #4F4849",
"C  c #534444",
"Z  c #445457",
"A  c #425355",
"S  c #4C5353",
"D  c #445758",
"F  c #465A5B",
"G  c #485C5E",
"H  c #515E5E",
"J  c #635C42",
"K  c #6B6344",
"L  c #716B4C",
"P  c #726B4E",
"I  c #756E51",
"U  c #7B7553",
"Y  c #797255",
"T  c #7B7454",
"R  c #7F7754",
"E  c #405D65",
"W  c #525F60",
"Q  c #546061",
"!  c #586566",
"~  c #5C6667",
"^  c #5A6768",
"/  c #5B6A6B",
"(  c #5C6969",
")  c #5E6C6C",
"_  c #616D6D",
"`  c #666F70",
"'  c #677677",
"]  c #6F7E7E",
"[  c #842F30",
"{  c #923031",
"}  c #807957",
"|  c #867E59",
" . c #8F875F",
".. c #8D855F",
"X. c #89805F",
"o. c #8F885F",
"O. c #908960",
"+. c #938B61",
"@. c #938B62",
"#. c #948C62",
"$. c #958D63",
"%. c #A69C71",
"&. c #ADD074",
"*. c #7A8B8B",
"=. c #849594",
"-. c #AFB2B3",
";. c #A5CFCF",
":. c #A6CFCF",
">. c #A7D1D1",
",. c #A7D0D0",
"<. c #A7D0D0",
"1. c #A8D1D1",
"2. c #A8D2D2",
"3. c #A9D2D3",
"4. c #AAD4D4",
"5. c #AAD4D5",
"6. c #AAD5D5",
"7. c #ABD5D6",
"8. c #ABD6D6",
"9. c #ACD7D7",
"0. c #AAD4D4",
"q. c #ACD7D8",
"w. c #AFDBDB",
"e. c #ACD8D8",
"r. c #AED9DA",
"t. c #B0DCDD",
"y. c #B1DDDE",
"u. c #B3E0E0",
"i. c #B4E1E2",
"p. c #B7E6E7",
"a. c #B5E2E3",
"s. c #B9E6E7",
"d. c #B8E7E8",
"f. c #BDEDED",
"g. c #BCECEC",
"h. c #BFEFF0",
"j. c #BFF1F1",
"k. c #BFF1F1",
"l. c #C2F4F4",
/* pixels */
"      2 4 4 4 4 2 : ; ; : > > > > > > > > > > > > > > > > > > > > > > > > > > > > > > > > > > > > > > > , , , , , < < < <       ",
"      4 4 4 4 4 : : : : < < q q < < q < < < < < < < < < < < < < < < < < < < < < < < < < < < < < < < < < < < q q q e q q q <     ",
"    4 4 4 4 4 4 e e e e e e e e e e e e e t y y u u u u u l l l l l u u u u u y y t e e e e e e e e e e e e e e e e e e e <     ",
"    4 4 4 4 4 4 e e e e e e t l 7.2.>.:.:.:.:.>.2.7.e.t.i.d.f.j.f.p.u.e.9.7.2.>.:.:.:.:.>.2.7.7.e e e e e e e e e e e e e e     ",
"  4 4 4 4 4 4 4 5 e e e e e e e e e t u u u l l c c c c b b b b b b b c c c c l l u u y r e e e e e e e e e e e e e e e e e e   ",
"  4 4 4 4 4 e e e e e e e e e @ @ @ @ @ @ @ @ @ @ @ @ @ @ @ @ @ @ @ @ @ @ @ @ @ @ @ @ @ @ @ @ @ @ ; e e e e e e e e e e e e e   ",
"4 : : 2 e e e e e e e e e < @ @ r w w w r u u u u u u u u u u u u u u u u y y u u u w w w w 6 r @ @ @ e e e e e e e e e e e e q ",
"; > , e e e e e e e e e , @ @  .7 7 7 f +.+.+.Y 9 % % 3 +.+.+.+. .7 7 7 f +.+.+.%.7 7 7 0 +.#.#. .@ @ @ e e e e e e e e e < , , ",
"; > , e e e e e e e e ; @ @ f 7 7 7  .+.+.+.o.7 7 7 9 +.+.+.+.f 7 7 &  .+.+.+.g 7 7 7 | +.+.+.j 7 7 ; @ @ e e e e e e e e < > ; ",
"; > , e e e e e e e @ @ @ 7 7 7 7 #.+.#.#.k 7 7 7 L #.R I #.7 7 = % #. .+.#.7 7 7 7 #.o.U T 7 7 7 7 #.; @ @ e e e e e e e < > ; ",
"; > , e e e e e e @ @ @ < r r r w r y y y u u u u u u u u u u u y q 6 6 w r r w w w w 6 r w w 6 w w w , , @ @ e e e e e e < > ; ",
"; > , e e e e e @ @ @ r , u u u u u u u u u u u u u u u u u u u u u u u u u u u u u u u u u u u u l l , u e @ @ e e e e e < > ; ",
"; > , e e e u > @ @ l r < l l l l l l l u u u u l u u u l l l l u u u u l u u u l l l l l l l l l l l , l l t @ : u e e e < > ; ",
"; > , e e e l > : u r r 1 t t t t t l l u l u u l u u u l l l l u l u u l u u u l l l l u , t t t t t , l l u ; : l e e e < > ; ",
"; > , e e e 7.q : l u r 6 r l l l , l l l l l l l l u u l l l l l l l l l l u u l l l l u , > M M M M M l l l ; : 7.e e e < > ; ",
"; > , e e t 7.r : u u y l l l l x , l l l l l l l l u u u l l l l l l l l l u u u l l l l , , y l l l l l l l ; , 7.e e e < > ; ",
"; > , e e y 2.r : u l l l l x x l > l l l l l l l l l l l l l l l l l l l l l l l l l l l , , l l l l l l l l ; 5 2.t e e < - ; ",
"; > , e e u 2.y : l l l l l x l x > l l l l l l l l l l l l l l l l l l l l l l l l l l l , , x l l l l l l 6 ; q 2.y 4 4 : - ; ",
"; > , e e u >.y : l l l l l l l x , l l l l l l l l l l l l l l l l l l l l l l l l l l l q , l l l l l l l y ; q 2.Z ! ! ! ( ; ",
"; > , e e u >.u : l l l l l l l x , l l l l l l l l l l l l l l l l l l l l l l l l l l l e > l l l l l l l l ; e >.( h } K O , ",
"; > , e e u >.u : l l l l l l l x , u l l l l l l l l l l l l l l l l l l l l l l l l l l q , l l l l l l l l ; e >.H 7 + 8 . 5 ",
"; > , e e l >.u : l l l l l l l x , w l l l l l l l l l l l l l l l l l l l l l l l l l l e , l l u w l u l l ; r >.H L + d . 5 ",
"; > , e e l >.z : l l y 4 4 , : > , w l l l l l l l l l l l l l l l l l l l l l l l l l l e > > 4 4 6 6 r l l ; y >.H X.$ * . 5 ",
"; > , e e c >.c : l l y , e t 6 6 6 w l l l l l l l l l l l l l l l l l l l l l l l l l l l u u u u u > y l l ; y >.W J % &.. 5 ",
"; > , e e c >.c > l l y < l l l l l l l l l l l l l l l l l l l l l l l l l l l l l l l l l l l l l l , l l l ; u >.Q + . X o , ",
"; > , e e c >.b , l l r < l l l l l l l l l l l l l l l l l l l l l l l l l l l l l l l l l l l l l l , l l l ; u >.c v v v v ; ",
"; > , e e c 2.n , l l r < l l l l y y l l l l l l l l l l l l l l l l l l l l l l l l l l r r l l l l , l l l ; u 2.b < q , > ; ",
"; > , e e b 2.m , l l w e e e e t , r l l l l l l l l l l l l l l l l l l l l l l l l l y 5 1 t t t t t l l l ; u 0.( . . . i > ",
"; > , e e b 7.N , l l r x x x x x , r l l l l x x l l l l l l l l l l x x x l l l l l l x 5 , l l l l l l l l ; u 7.( @ @ @ v > ",
"; > , e e n 9.B , l l l l l l l x , y l l l l l x l l l l l l l l l x x x l l l l l l l l 5 , l l l l l l l l ; z 9.! [ ] C _ > ",
"; > , e e m e.A 5 l l l l l l l x , u l l l l l x x l l l l l l l l l l x l l l l l l l l 5 , l l l l l l l l ; z e.( a ' V _ > ",
"; > , e e m t.Z 5 l l l l l l l x , l l l l l l l x l l l l l l l l l l l l l l l l l l l 5 , l l l l l l l l ; c t.) s ) S _ > ",
"; > , e e m t.D 5 l l l l l l l x , l l l l l l l l l l l l l l l l x x l l x l l l l x u 5 , l l l l x l l l ; c i.) a ) C ~ > ",
"; > , e e m i.F 5 l l l l l l l x , x l l l l l l l l l l l l l l l l x l l x x l l l l x 5 , l l l l l l l l ; c p.) { *.p ` > ",
"; > , e e N s.F 5 l l l r l l l x , x l l l l l l x l x l l l l l l l l l l l l l l r l l 5 , y x l l l l x l ; c g._ S ^ A =.> ",
"; > , e e N g.G 5 l l y w r r l x , x l l l l l l x x x l l l l l l l l l l l l l l w w l q , w r l x l l l l ; c f.m 4 4 : - ; ",
"; > , e e N f.G 5 l l r @ @ @ @ @ > x l l l l l l l l l l l l l l l l l l l l l l w w w l e @ @ @ @ @ @ l l l ; c l.B e e < : ; ",
"; > , e e N j.G 5 l l r < x x x x l l l l l l l l l l l r 6 6 l 6 x l y l l l l l r y l l l x x x x x , l l l ; c l.A e e < > ; ",
"; > , e e N j.G 5 l x r < l l l ; @ @ @ @ @ @ @ @ @ @ @ @ @ @ @ @ @ @ @ @ @ @ @ @ @ @ @ @ @ @ < l l l , l l l ; c l.Z e e < > ; ",
"; > , e e N f.G 5 l x y < l l l q E E E E E E E E E E E E E E E E E E E E E E E E E E E E E t < l l l > l l l ; c j.B e e < > ; ",
"; > , e e N g.G 5 l l l , l l l e l l l l l l l l l l l l l l l l l l l l l l l l l l l l l t < l l l , l l l ; c g.B e e < > ; ",
"; > , e e N p.F 5 y l l , w r l e l l l l l l l l l l l l l l u u y r y y y r r r r r r r l t < l l y , l l l ; c s.B e e < > ; ",
"; > , e e m i.F 5 w l l , w 6 l < t t t t t t t t t t t t t t t t t t t t t t t t t t t t t t < l x w , r u w ; c i.B e e < > ; ",
"; > , e e m t.D 5 w w l , w w w w y l l l l l l l u l l l l l y 6 w w w 6 r y u l l l r 6 r u u u w w , r w w ; c t.N e e < > ; ",
"; > , e e m e.Z 5                                                                                             : c w.N e e < > ; ",
"; > , e e m e.A 5                                                                                             : z e.m e e < > ; ",
"; > , e e n 7.B 5                                                                                             ; i 7.m e e < > ; ",
"; > , e e b 7.m ,                                                                                             ; u 7.m e e < > ; ",
"; > , e e b 2.m ,                                                                                             ; u 2.b e e < > ; ",
"; > , e e c >.n >                                                                                             ; u 2.b e e < > ; ",
"; > , e e c >.b :                                                                                             ; y >.c e e < > ; ",
"; > , e e c >.c :                                                                                             ; y >.c e e < > ; ",
"@ > , e e c >.c :                                                                                             ; y >.c e e < > ; ",
"@ > , e e l >.z :                                                                                             ; r >.c e e < > ; ",
"@ > , e e l >.u :                                                                                             ; r >.l e e < > ; ",
"@ ; , e e u >.u :                                                                                             ; e >.l e e < > ; ",
"@ # , e e u >.y :                                                                                             ; q >.u e e < > ; ",
"@ # : e e y 2.y :                                                                                             ; 5 2.r e e < > ; ",
"@ # : e e r 2.y :                                                                                             ; , 2.w e e < > ; ",
"@ # : e e 6 0.r :                                                                                             ; > 0.6 4 e < - ; ",
"@ # : 2 4 4 7.e :                                                                                             ; : 7.4 4 5 < - @ ",
"@ # : 2 2 4 9., :                                                                                             ; : 9.4 4 4 : - @ ",
"@ # : 2 4 4 q.> :                                                                                             ; : e.4 4 4 : - @ ",
"@ # : 2 4 4 u t -.                                                                                            -.: e 4 4 4 : - @ "
};
