/* XPM */
static char *b6e900bbf43c4acdfa035276130015acKq9zyO8dkWlPLEVV[] = {
/* columns rows colors chars-per-pixel */
"64 64 124 2 ",
"   c #0b0a0a",
".  c #000000",
"X  c #080A06",
"o  c #0A0B0B",
"O  c #11100E",
"+  c #1B1B14",
"@  c #131B1C",
"#  c #191E1F",
"$  c #1E2016",
"%  c #212618",
"&  c #262C1A",
"*  c #1A1F20",
"=  c #162123",
"-  c #1A2325",
";  c #1A262A",
":  c #1C2A2C",
">  c #1E2D31",
",  c #202627",
"<  c #212728",
"1  c #212B2D",
"2  c #282F2F",
"3  c #312D23",
"4  c #2E3520",
"5  c #222F32",
"6  c #282F30",
"7  c #213135",
"8  c #293234",
"9  c #263539",
"0  c #293639",
"q  c #273B3E",
"w  c #2B3A3D",
"e  c #313C3D",
"r  c #6B3535",
"t  c #733233",
"y  c #793132",
"u  c #3B4629",
"i  c #514B37",
"p  c #2B3E43",
"a  c #313F41",
"s  c #2D4045",
"d  c #334345",
"f  c #3E4646",
"g  c #364649",
"h  c #354648",
"j  c #364649",
"k  c #32484C",
"l  c #3A4B4D",
"z  c #3C4F51",
"x  c #3F5153",
"c  c #4F4849",
"v  c #534444",
"b  c #445457",
"n  c #425355",
"m  c #4C5353",
"M  c #445758",
"N  c #465A5B",
"B  c #485C5E",
"V  c #515E5E",
"C  c #635C42",
"Z  c #6B6344",
"A  c #726B4E",
"S  c #415F68",
"D  c #525F60",
"F  c #546061",
"G  c #586566",
"H  c #5C6667",
"J  c #5A6768",
"K  c #5B6A6B",
"L  c #5C6969",
"P  c #5E6C6C",
"I  c #496972",
"U  c #4F6F79",
"Y  c #4E6E78",
"T  c #4F707A",
"R  c #50727C",
"E  c #616D6D",
"W  c #666F70",
"Q  c #677677",
"!  c #6F7E7E",
"~  c #842F30",
"^  c #923031",
"/  c #807957",
"(  c #89805F",
")  c #ADD074",
"_  c #7A8B8B",
"`  c #849594",
"'  c #AEB1B2",
"]  c #A5CFCF",
"[  c #A6CFCF",
"{  c #A6D0D0",
"}  c #A7D0D0",
"|  c #A7D1D1",
" . c #A7D0D0",
".. c #A8D1D1",
"X. c #A8D2D2",
"o. c #A9D2D2",
"O. c #A9D3D3",
"+. c #A8D2D3",
"@. c #AAD4D4",
"#. c #AAD4D5",
"$. c #AAD5D5",
"%. c #ABD5D6",
"&. c #ABD6D6",
"*. c #ACD7D7",
"=. c #AAD4D4",
"-. c #ACD7D8",
";. c #AFDBDB",
":. c #ACD8D8",
">. c #AED9DA",
",. c #B0DCDD",
"<. c #B1DDDE",
"1. c #B3E0E0",
"2. c #B4E1E2",
"3. c #B7E6E7",
"4. c #B5E2E3",
"5. c #B9E6E7",
"6. c #B8E7E8",
"7. c #BDEEEE",
"8. c #BCECEC",
"9. c #BCECEC",
"0. c #BFEFF0",
"q. c #BFF1F1",
"w. c #BFF1F1",
"e. c #C2F4F4",
/* pixels */
"      , < < < < , - = = - ; ; ; ; ; ; ; ; ; ; ; ; ; ; ; ; ; ; ; ; ; ; ; ; ; ; ; ; ; ; ; ; ; ; ; ; ; ; ; : : : : : > > > >       ",
"      < < < < < - - - - > > 5 5 > > > > > > > > > > > > > > > > > > > > > > > > > > > > > > > > > > > > > > 5 5 5 7 5 5 5 >     ",
"    < < < < < < 7 7 7 7 7 7 7 7 7 7 7 7 7 9 9 0 w w w w w p p p w p w w w w w 0 0 9 7 7 7 7 7 7 7 7 7 7 7 7 7 7 7 7 7 7 7 >     ",
"    < < < < < < 7 7 7 7 7 7 9 p %.X.| [ [ [ [ | X.%.:.,.2.6.7.q.9.3.,.:.*.%.X.| [ [ [ [ | X.=.=.7 7 7 7 7 7 7 7 7 7 7 7 7 7     ",
"  < < < < < < < 1 7 7 7 7 7 7 7 7 7 9 w w w p p a d d d h h h h h h h d d d p p p w w 0 8 7 7 7 7 7 7 7 7 7 7 7 7 7 7 7 7 7 7   ",
"  < < < < < 7 7 7 7 7 7 7 7 7 @ @ @ @ @ @ @ @ @ @ @ @ @ @ @ @ @ @ @ @ @ @ @ @ @ @ @ @ @ @ @ @ @ @ = 7 7 7 7 7 7 7 7 7 7 7 7 7   ",
"< - - , 7 7 7 7 7 7 7 7 7 > @ @ p p p p p w w p w p w p p p p p p p p p w w w w p p p p p 7 6 6 @ @ @ 7 7 7 7 7 7 7 7 7 7 7 7 5 ",
"= ; : 7 7 7 7 7 7 7 7 7 : @ @ I S ; p p w w w w p p w w p p p p p w p p w w p p p p p p w : : s s @ @ @ 7 7 7 7 7 7 7 7 7 > : : ",
"= ; : 7 7 7 7 7 7 7 7 = @ @ p s p : p p w w w w p p w w w w w w w w w w w w p p p p q p p : : p s p = @ @ 7 7 7 7 7 7 7 7 > ; = ",
"= ; : 7 7 7 7 7 7 7 @ @ @ p s s p : p p p p p p p p p p p p p p p p p p p p p p p p p p p : : 0 p p p - @ @ 7 7 7 7 7 7 7 > ; = ",
"= ; : 7 7 7 7 7 7 @ @ @ p p p p p ; p p p p p p p p p p p p p p p p p p p p p p p p p p p : : s p s s s : @ @ 7 7 7 7 7 7 > ; = ",
"= ; : 7 7 7 7 7 @ @ @ p p p p p p ; p p p p p p p p p p p p p p p p p p p p p p p p p p p : : s p s s s p 7 @ @ 7 7 7 7 7 > ; = ",
"= ; : 7 7 7 w ; @ @ p p p p p p p : p p p p p p p p p p p p p p p p p p p p p p p p p p p 7 : p p p p p p p 9 @ - w 7 7 7 > ; = ",
"= ; : 7 7 7 p ; - p p s p p p p s : p p p p p p p p p p p p p p p p p p p p p p p p p p p 7 : p p p p p p p p = - p 7 7 7 > ; = ",
"= ; : 7 7 7 %.5 - p p s p p p p s : 8 p p p p p p p p p p p p p p p p p p p p p p p p p p 7 : p p p p p p p p = - %.7 7 7 > ; = ",
"= ; : 7 7 9 %.8 - p p 0 8 6 8 p s : 6 p p p p p p p p p p p p p p p p p p p p p p p p p p 7 : p 8 6 6 6 6 p p = : %.7 7 7 > ; = ",
"= ; : 7 7 0 X.8 - p p 0 @ @ @ @ @ = 6 p p p p p p p p p p p p p p p p p p p p p p p p p p 7 @ @ @ @ @ @ 0 p p = 1 X.9 7 7 > * = ",
"= ; : 7 7 w X.0 - p p 0 > p p p 6 6 6 p p p p p p p p p p p p p p p p p p p p p p p p p p p p p p p p : w p p = 5 X.0 < < - * = ",
"= ; : 7 7 w | 0 - p p 0 > p p p p p p p p p p p p p p p p p p p p p p p p p p p p p p p p p p p p p p : p p p = 5 X.b G G G L = ",
"= ; : 7 7 w | w - p p 8 > p p p p p p p p p p p p p p p p p p p p p p p p p p p p p p p p p p p p p p : p p p = 7 | L i / Z O : ",
"= ; : 7 7 w | w - p p 8 > q q q 8 6 6 8 p p p p p p p p p p p p p p p p p p p p p p p p p 1 1 1 1 7 9 : p p p = 7 | V 3 + 4 . 1 ",
"= ; : 7 7 p | w - p p 6 U U U U T : 6 p p p p p p p p p p p p p p p p p p p p p p p p p p 1 ; R R R R I p p p = 8 | V A + u . 1 ",
"= ; : 7 7 p | a - p p p p p p p s : 0 p p p p p p p p p p p p p p p p p p p p p p p p p p 1 : p p p p p p p p = 0 | V ( $ & . 1 ",
"= ; : 7 7 d | d - p p p p p p s s : w p p p p p p p p p p p p p p p p p p p p p p p p p p 1 : p p p p p p p p = 0 | D C % ) . 1 ",
"= ; : 7 7 d | d ; p p p p p p p s : p s p p p p p p p p p p p p p p p p p p p p p p p p p 1 : p p p p p p p s = 0 | F + . X o : ",
"= ; : 7 7 d | h : p p p p p p p s : p p p p p p p p p p p p s s p p p p s p p p p p p p 8 1 : p p p p p p p s = w | d f f f f = ",
"= ; : 7 7 d X.l : p p p p p p p s : s p p p p p p p p p p p s s p p p p s p p p p p p p p 1 : p p p p p p p s = w X.h > > : ; = ",
"= ; : 7 7 h X.l : p p p p p p p s : s p p p p p p p p p p p p p p p p p s s p p p p p p p 1 : p p p p p p p p = w =.L . . . e ; ",
"= ; : 7 7 h %.z : p p w 2 p p p s : s p p p p p p p p p p p p p p p p p p p p p p p 6 0 p 1 : 6 s p p p p p p = w %.L @ @ @ f ; ",
"= ; : 7 7 j *.x : p p 0 6 6 6 8 p : s p p p p p p p p p p p p p p p p p p p p p p 0 6 6 p 7 : 8 8 6 8 p p p p = a *.G ~ ! v E ; ",
"= ; : 7 7 l :.n 1 p p 6 = = = = = - s p p p p p p p p p p p p p p p p p p p p p p 6 6 2 p : = = = = = ; p p p = a :.L t Q c E ; ",
"= ; : 7 7 l ,.b 1 p p 6 > p p p p p p 0 8 8 8 8 0 0 8 6 6 6 8 8 6 6 6 6 2 8 0 w w w p p p p p p p p p : p p p = d ,.P y P m E ; ",
"= ; : 7 7 l ,.M 1 p p 8 : p p p 7 k k k k k k k k k k k k k k k k k k k k k k k k k k k k k k > p p p : p p p = d 2.P t P v H ; ",
"= ; : 7 7 l 2.N 1 p p w > p p p 7 p p p p p p p p p p p p p p p p p p p p p p p p p p p p p 9 > p p p ; p p p = d 3.P ^ _ r W ; ",
"= ; : 7 7 z 5.N 1 p p p : 8 p p 7 p p p p p p p p p p p p p p p p p p p p p p p p p w p p p 9 > p p p ; p p p = d 9.E m J n ` ; ",
"= ; : 7 7 z 9.B 1 6 p p : 6 6 p 5 - - - - - - - - - - - - - - - - - - - - - - - - - - - - - : > p p 6 : 0 p 8 = d 7.l < < - * = ",
"= ; : 7 7 z 7.B 1 6 0 p : 6 6 0 q q q q q q q q q q q q q q q q q q q q q q q q q q q q q q q w p p 6 : 8 6 6 = d e.x 7 7 > - = ",
"= ; : 7 7 z q.B 1                                                                                             = d e.n 7 7 > ; = ",
"= ; : 7 7 z q.B 1                                                                                             = d e.b 7 7 > ; = ",
"= ; : 7 7 z 7.B 1                                                                                             = d q.x 7 7 > ; = ",
"= ; : 7 7 z 9.B 1                                                                                             = d 9.x 7 7 > ; = ",
"= ; : 7 7 z 3.N 1                                                                                             = d 5.x 7 7 > ; = ",
"= ; : 7 7 l 2.N 1                                                                                             = d 2.x 7 7 > ; = ",
"= ; : 7 7 l ,.M 1                                                                                             = d ,.z 7 7 > ; = ",
"= ; : 7 7 l :.b 1                                                                                             = d ;.z 7 7 > ; = ",
"= ; : 7 7 l :.n 1                                                                                             = a :.l 7 7 > ; = ",
"= ; : 7 7 j %.x 1                                                                                             = e %.l 7 7 > ; = ",
"= ; : 7 7 h %.l :                                                                                             = w %.l 7 7 > ; = ",
"= ; : 7 7 h X.l :                                                                                             = w X.h 7 7 > ; = ",
"= ; : 7 7 d | l ;                                                                                             = w X.h 7 7 > ; = ",
"= ; : 7 7 d | h -                                                                                             = 0 | d 7 7 > ; = ",
"= ; : 7 7 d | d -                                                                                             = 0 | d 7 7 > ; = ",
"@ ; : 7 7 d | d -                                                                                             = 0 | d 7 7 > ; = ",
"@ ; : 7 7 p | a -                                                                                             = 8 | d 7 7 > ; = ",
"@ ; : 7 7 p | w -                                                                                             = 8 | p 7 7 > ; = ",
"@ = : 7 7 w | w -                                                                                             = 7 | p 7 7 > ; = ",
"@ # : 7 7 w | 0 -                                                                                             # 6 | w 7 7 > ; = ",
"@ # - 7 7 0 X.0 -                                                                                               1 X.8 7 7 > ; = ",
"@ # - 7 7 8 X.0 -                                                                                               : X.6 7 7 > ; = ",
"@ # - 7 7 1 =.8 -                                                                                               ; =.1 < 7 > * = ",
"@ # - , < < %.7 -                                                                                               - %.< < 1 > * @ ",
"@ # - , , < *.: -                                                                                               - *.< < < - * @ ",
"@ # - , < < -.; -                                                                                               - :.< < < - * @ ",
"@ # - , < < w 9 '                                                                                               - 7 < < < - * @ "
};
