/* XPM */
static char *c390a8b27e504e4df0fdee8dc8990dfbWdugtvzanDluCPNl[] = {
/* columns rows colors chars-per-pixel */
"64 64 121 2 ",
"   c #000000",
".  c #000000",
"X  c #080A06",
"o  c #0A0B0B",
"O  c #11100E",
"+  c #1B1B14",
"@  c #131B1B",
"#  c #191E1F",
"$  c #1E2016",
"%  c #212618",
"&  c #262C1A",
"*  c #1A1F20",
"=  c #162123",
"-  c #192325",
";  c #1A262A",
":  c #1D2A2D",
">  c #1F2D31",
",  c #202627",
"<  c #212728",
"1  c #212B2D",
"2  c #312D23",
"3  c #2E3520",
"4  c #222F32",
"5  c #282F30",
"6  c #213135",
"7  c #2A3233",
"8  c #243739",
"9  c #293639",
"0  c #27383C",
"q  c #2C3A3D",
"w  c #313C3D",
"e  c #6B3535",
"r  c #733233",
"t  c #793132",
"y  c #3B4629",
"u  c #514B37",
"i  c #2C3F43",
"p  c #313F41",
"a  c #2C4045",
"s  c #334345",
"d  c #3E4646",
"f  c #33454A",
"g  c #37494B",
"h  c #3A4B4D",
"j  c #3C4F51",
"k  c #3F5153",
"l  c #4F4849",
"z  c #534444",
"x  c #425355",
"c  c #4C5353",
"v  c #445758",
"b  c #465A5B",
"n  c #485C5E",
"m  c #515E5E",
"M  c #635C42",
"N  c #6B6344",
"B  c #726B4E",
"V  c #525F60",
"C  c #546061",
"Z  c #5A6566",
"A  c #5A6768",
"S  c #5B6969",
"D  c #5C6969",
"F  c #5C696A",
"G  c #5F6D6E",
"H  c #606A6B",
"J  c #626F6F",
"K  c #606D6E",
"L  c #666F70",
"P  c #677677",
"I  c #6F7E7E",
"U  c #842F30",
"Y  c #923031",
"T  c #807957",
"R  c #89805F",
"E  c #ADD074",
"W  c #7A8B8B",
"Q  c #849594",
"!  c #AEB1B2",
"~  c #A5CFCF",
"^  c #A6CFCF",
"/  c #A6D0D0",
"(  c #A7D0D0",
")  c #A7D1D1",
"_  c #A7D0D0",
"`  c #A8D1D1",
"'  c #A8D2D2",
"]  c #A9D2D2",
"[  c #A8D2D3",
"{  c #A9D3D3",
"}  c #AAD3D4",
"|  c #AAD4D4",
" . c #AAD4D5",
".. c #AAD5D5",
"X. c #ABD5D5",
"o. c #ABD5D6",
"O. c #ABD6D6",
"+. c #ACD7D7",
"@. c #AAD4D4",
"#. c #ACD7D8",
"$. c #ACD7D8",
"%. c #ACD8D8",
"&. c #AED9D9",
"*. c #AFDADA",
"=. c #AFDBDB",
"-. c #AED9DA",
";. c #B0DCDD",
":. c #B1DDDE",
">. c #B3E0E0",
",. c #B4E1E2",
"<. c #B7E6E7",
"1. c #B5E2E3",
"2. c #B9E6E7",
"3. c #B8E7E8",
"4. c #BCECEC",
"5. c #BDEEEE",
"6. c #BCECEC",
"7. c #BFEFF0",
"8. c #BFF1F1",
"9. c #BFF1F1",
"0. c #C2F4F4",
/* pixels */
"      , < < < < , - - - - ; ; ; ; ; ; ; ; ; ; ; ; ; ; ; ; ; ; ; ; ; ; ; ; ; ; ; ; ; ; ; ; ; ; ; ; ; ; ; ; ; : ; : > > > >       ",
"      < < < < < ; ; ; ; > > 4 4 > > > > > > > > > > > > > > > > > > > > > > > > > > > > > > > > > > > > > > 4 4 4 6 4 4 4 >     ",
"    < < < < < < 6 6 6 6 6 6 6 6 6 6 6 6 6 8 8 0 q q q q q i i i i i q q q q q 0 9 8 6 6 6 6 6 6 6 6 6 6 6 6 6 6 6 6 6 6 6 >     ",
"    < < < < < < 6 6 6 6 6 6 8 i o.' ) ^ ^ ^ ^ ) ' o.%.;.,.3.5.8.5.<.>.%.+.o.' ) ^ ^ ^ ^ ) ' o.o.6 6 6 6 6 6 6 6 6 6 6 6 6 6     ",
"  < < < < < < < 1 6 6 6 6 6 6 6 6 6 8 q q q i i s s s s f f f f f f f s s s s i i q q 0 7 6 6 6 6 6 6 6 6 6 6 6 6 6 6 6 6 6 6   ",
"  < < < < < 6 6 6 6 6 6 6 6 6 @ @ @ @ @ @ @ @ @ @ @ @ @ @ @ @ @ @ @ @ @ @ @ @ @ @ @ @ @ @ @ @ @ @ = 6 6 6 6 6 6 6 6 6 6 6 6 6   ",
"< ; - , 6 6 6 6 6 6 6 6 6 > @ @ 0 f f f f f f f f f f f f f f f f f f f f f f f f f f f f f f > @ @ @ 6 6 6 6 6 6 6 6 6 6 6 6 4 ",
"= ; : 6 6 6 6 6 6 6 6 6 ; @ @ a 6 i i i i i i i i i i i i i i i i i i i i i i i i i i i i i 8 > a @ @ @ 6 6 6 6 6 6 6 6 6 > : : ",
"= ; : 6 6 6 6 6 6 6 6 = @ @ i i 6 i i i i i i i i i i i i i i i i i i i i i i i i i i i i i 8 > a i = @ @ 6 6 6 6 6 6 6 6 > ; = ",
"= ; : 6 6 6 6 6 6 6 @ @ @ 5 7 i 6 - - - - - - - = = - - - - - - - - - - - - - - - - - - - - > > a i 7 = @ @ 6 6 6 6 6 6 6 > ; = ",
"= ; : 6 6 6 6 6 6 @ @ @ : 5 5 i 8 8 8 8 8 8 8 8 8 8 8 8 8 8 8 8 8 8 8 8 8 8 8 8 8 8 8 8 8 8 8 6 i a 7 ; ; @ @ 6 6 6 6 6 6 > ; = ",
"= ; : 6 6 6 6 6 @ @ @ i 4 7 7 7 7 7 7 7 7 7 7 7 7 7 7 9 9 q q 7 7 7 7 7 7 7 7 7 7 7 7 7 7 7 7 7 7 7 7 : 7 1 @ @ 6 6 6 6 6 > ; = ",
"= ; : 6 6 6 q ; @ @                                                                                           @ - q 6 6 6 > ; = ",
"= ; : 6 6 6 i ; -                                                                                             = - i 6 6 6 > ; = ",
"= ; : 6 6 6 o.4 -                                                                                             = - o.6 6 6 > ; = ",
"= ; : 6 6 8 o.7 -                                                                                             - ; o.6 6 6 > ; = ",
"= ; : 6 6 9 ' 9 -                                                                                             - 1 ' 8 6 6 > * = ",
"= ; : 6 6 q ' 9 -                                                                                             - 4 ' 0 < < ; * = ",
"= ; : 6 6 q ) 0 -                                                                                             = 4 ' v Z Z Z S = ",
"= ; : 6 6 q ) q -                                                                                             = 6 ) F u T N O : ",
"= ; : 6 6 q ) q -                                                                                             = 6 ) m 2 + 3 . 1 ",
"= ; : 6 6 i ) q -                                                                                             = 7 ) m B + y . 1 ",
"= ; : 6 6 i ) p -                                                                                             = 9 ) m R $ & . 1 ",
"= ; : 6 6 s ) s -                                                                                             = 9 ) V M % E . 1 ",
"= ; : 6 6 s ) s ;                                                                                             = 0 ) C + . X o ; ",
"= ; : 6 6 s ) f ;                                                                                             = q ) s d d d d = ",
"= ; : 6 6 s ' g :                                                                                             = q ' f > > : ; = ",
"= ; : 6 6 f ' h :                                                                                             = q } S . . . w ; ",
"= ; : 6 6 f o.j :                                                                                             = q o.F @ @ @ d ; ",
"= ; : 6 6 g +.k :                                                                                             = w +.Z U I z H ; ",
"= ; : 6 6 h %.x 1                                                                                             = s %.S r P l J ; ",
"= ; : 6 6 h ;.v 1                                                                                             = s ;.G t G c H ; ",
"= ; : 6 6 h ;.v 1                                                                                             = s ,.G r G z D ; ",
"= ; : 6 6 h ,.b 1                                                                                             = s <.G Y W e L ; ",
"= ; : 6 6 j 2.b 1                                                                                             = s 6.J c A x Q ; ",
"= ; : 6 6 j 6.n 1                                                                                             = s 5.h < < ; * = ",
"= ; : 6 6 j 5.n 1                                                                                             = s 0.k 6 6 > - = ",
"= ; : 6 6 j 8.n 1                                                                                             = s 0.x 6 6 > ; = ",
"= ; : 6 6 j 8.n 1                                                                                             = s 0.x 6 6 > ; = ",
"= ; : 6 6 j 5.n 1                                                                                             = s 7.k 6 6 > ; = ",
"= ; : 6 6 j 6.n 1                                                                                             = s 6.k 6 6 > ; = ",
"= ; : 6 6 j <.b 1                                                                                             = s 2.k 6 6 > ; = ",
"= ; : 6 6 h ,.b 1                                                                                             = s ,.k 6 6 > ; = ",
"= ; : 6 6 h ;.v 1                                                                                             = s ;.j 6 6 > ; = ",
"= ; : 6 6 h %.v 1                                                                                             = s =.j 6 6 > ; = ",
"= ; : 6 6 h %.x 1                                                                                             = p %.h 6 6 > ; = ",
"= ; : 6 6 g o.k 1                                                                                             = w o.h 6 6 > ; = ",
"= ; : 6 6 f o.h :                                                                                             # q o.h 6 6 > ; = ",
"= ; : 6 6 f ' h ;                                                                                             # q ' f 6 6 > ; = ",
"= ; : 6 6 s ) g ;                                                                                               q ' f 6 6 > ; = ",
"= ; : 6 6 s ) f -                                                                                               0 ) s 6 6 > ; = ",
"= ; : 6 6 s ) s -                                                                                               9 ) s 6 6 > ; = ",
"@ ; : 6 6 s ) s -                                                                                               9 ) s 6 6 > ; = ",
"@ ; : 6 6 i ) p -                                                                                               9 ) s 6 6 > ; = ",
"@ ; : 6 6 i ) q -                                                                                               7 ) i 6 6 > ; = ",
"@ - : 6 6 q ) q -                                                                                               6 ) i 6 6 > ; = ",
"@ # : 6 6 q ) 0 -                                                                                               4 ) q 6 6 > ; = ",
"@ # - 6 6 0 ' 9 -                                                                                               1 ' 7 6 6 > ; = ",
"@ # - 6 6 7 ' 9 -                                                                                               : ' 5 6 6 > ; = ",
"@ # - 6 6 1 } 9 -                                                                                               ; } 1 < 6 > * = ",
"@ # - , < < o.6 -                                                                                               - o.< < 1 > * @ ",
"@ # - , < < +.: -                                                                                               - +.< < < ; * @ ",
"@ # - , < < #.; -                                                                                               - %.< < < ; * @ ",
"@ # - , < < q 8 !                                                                                               - 6 < < < ; * @ "
};
