/* XPM */
static char *ca3624c777594eeeb4c647c1acb016a7kMOAoCwdEKnc1MRW[] = {
/* columns rows colors chars-per-pixel */
"64 64 142 2 ",
"   c #000000",
".  c #000000",
"X  c #080A06",
"o  c #0A0B0B",
"O  c #11100E",
"+  c #1B1B14",
"@  c #141C1C",
"#  c #191E1F",
"$  c #1E2016",
"%  c #25241C",
"&  c #262C1A",
"*  c #1A1F20",
"=  c #162123",
"-  c #1A2425",
";  c #1A262A",
":  c #1C2A2C",
">  c #1E2D31",
",  c #1F3234",
"<  c #202627",
"1  c #2C2A22",
"2  c #212728",
"3  c #212B2D",
"4  c #282E2F",
"5  c #312E24",
"6  c #2E3520",
"7  c #363327",
"8  c #373428",
"9  c #3C392B",
"0  c #212F32",
"q  c #282F30",
"w  c #213135",
"e  c #283133",
"r  c #25373A",
"t  c #293639",
"y  c #27383D",
"u  c #293A3E",
"i  c #313C3D",
"p  c #433F2F",
"a  c #6B3535",
"s  c #733233",
"d  c #793132",
"f  c #3B4629",
"g  c #3A4339",
"h  c #484432",
"j  c #514B37",
"k  c #524E39",
"l  c #2B3E43",
"z  c #313F41",
"x  c #2D4045",
"c  c #334345",
"v  c #3E4646",
"b  c #354649",
"n  c #37494B",
"m  c #3A4B4D",
"M  c #344B51",
"N  c #3C4F51",
"B  c #3F5154",
"V  c #4F4849",
"C  c #534444",
"Z  c #425355",
"A  c #4C5353",
"S  c #445758",
"D  c #455A5C",
"F  c #485C5E",
"G  c #515E5E",
"H  c #625C42",
"J  c #666145",
"K  c #6B6344",
"L  c #726B4E",
"P  c #777252",
"I  c #7C7456",
"U  c #525F60",
"Y  c #4B6D6C",
"T  c #546061",
"R  c #5A6566",
"E  c #5A6768",
"W  c #5D6B6C",
"Q  c #4F7372",
"!  c #507674",
"~  c #537C7B",
"^  c #616D6D",
"/  c #666F70",
"(  c #677677",
")  c #6F7E7E",
"_  c #842F30",
"`  c #923031",
"'  c #807957",
"]  c #887F5A",
"[  c #87805C",
"{  c #8C855E",
"}  c #938B62",
"|  c #9A9265",
" . c #9A9069",
".. c #ADD074",
"X. c #578383",
"o. c #588584",
"O. c #5A8A8A",
"+. c #5C8F91",
"@. c #5D9191",
"#. c #7A8B8B",
"$. c #6C908E",
"%. c #619696",
"&. c #649C9C",
"*. c #729595",
"=. c #7CA09E",
"-. c #66A1A2",
";. c #69A5A7",
":. c #7FA2A1",
">. c #6EAFB1",
",. c #849594",
"<. c #80A3A3",
"1. c #86A5A5",
"2. c #86A5A6",
"3. c #8BB0B0",
"4. c #8DB4B3",
"5. c #8DB4B4",
"6. c #AEB2B2",
"7. c #A5CFCF",
"8. c #A6CFCF",
"9. c #A7D0D0",
"0. c #A7D1D1",
"q. c #A7D0D0",
"w. c #A9D2D2",
"e. c #A8D1D1",
"r. c #AAD4D5",
"t. c #ABD6D6",
"y. c #ACD7D7",
"u. c #AAD4D4",
"i. c #ACD7D8",
"p. c #AEDADA",
"a. c #AED9DA",
"s. c #B1DDDE",
"d. c #B3E0E0",
"f. c #B7E6E7",
"g. c #B5E2E3",
"h. c #B9E6E7",
"j. c #B8E7E8",
"k. c #BDEDED",
"l. c #BCECEC",
"z. c #BFEFF0",
"x. c #BFF1F1",
"c. c #C2F4F4",
/* pixels */
"      < 2 2 2 2 < - = = - ; ; ; ; ; ; ; ; ; ; ; ; ; ; ; ; ; ; ; ; ; ; ; ; ; ; ; ; ; ; ; ; ; ; ; ; ; ; ; ; : : : : > > > >       ",
"      2 2 2 2 2 - - - - > > 0 0 > > > > > > > > > > > > > > > > > > > > > 0 > > > > > > > > > > > > > > > > 0 0 0 w 0 0 0 >     ",
"    2 2 2 2 2 2 w w w w w w w w w w w w w r t t u u u u u l l l l u u u u u u t t r w w w w w w w w w w w w w w w w w w w >     ",
"    2 2 2 2 2 2 w w w w w w r l t.w.0.8.8.8.8.0.w.t.p.s.g.j.k.x.l.f.d.p.y.t.w.0.8.8.8.8.0.w.t.t.w w w w w w w w w w w w w w     ",
"  2 2 2 2 2 2 2 3 w w w w w w w w w r u u u l l c c c c b b b b b b b c c c c l l u u t e w w w w w w w w w w w w w w w w w w   ",
"  2 2 2 2 2 w w w w w w w w w @ @ @ @ @ @ @ @ @ @ @ @ @ @ @ @ @ @ @ @ @ @ @ @ @ @ @ @ @ @ @ @ @ @ = w w w w w w w w w w w w w   ",
"2 - - < w w w w w w w w w > @ @ u r r r r r r r r r r r r r r r r r r r r r r r r r r r r r r r @ @ @ w w w w w w w w w w w w 0 ",
"= ; : w w w w w w w w w ; @ @ r r r r r r r r r r r r r r Q $.$.$.$.*.y r r r r r r r r r r r r r @ @ @ w w w w w w w w w > : : ",
"= ; : w w w w w w w w = @ @ y y y y y y y y y y y y y y y ~ 2.y y y y y y y u B B y y y y y y y y y = @ @ w w w w w w w w > ; = ",
"= ; : w w w w w w w @ @ @ y y y y y y y y y y y y y y y y O.2.y y y y y y y l ! ! Y y y y y y y y y y = @ @ w w w w w w w > ; = ",
"= ; : w w w w w w @ @ @ : y y y y y y y y y y y y %.&.&.&.%.2.y y y y y y y l O.O.~ y y y y y y y y y ; : @ @ w w w w w w > ; = ",
"= ; : w w w w w @ @ @ e > y y y y y y y y y y y y &.u y y y y y y y y y y y l &.&.O.y y y y y y y y y ; y 0 @ @ w w w w w > ; = ",
"= ; : w w w u ; @ @ y y > y y y y y y y y y y y y &.l y y y y y y y y y r r u ;.>.+.r r y y y y y y y ; y y r @ - u w w w > ; = ",
"= ; : w w w l ; - y y y > y y y y y y y y r r w w &.l y y y y y y y y y y X.@.&.-.&.O.~ y y y y y y y ; y y y = - l w w w > ; = ",
"= ; : w w w t.0 - u u u > u u u u u u u b *.3.3.4.5.l u u u u u u u u u u u o.O.O.O.D u u u u u u u u ; u u u = - t.w w w > ; = ",
"= ; : w w r t.e - u u u > u u u u u u u b <.u u u u u u u u u u u u u u u u u Y ~ x u u u u u u u u u ; u u u = : t.w w w > ; = ",
"= ; : w w t w.t - u u u > u u u u u u u b <.u u u u u u u u u u u u u u u u u u y u u u u u u u u u u ; u u u = 3 w.r w w > * = ",
"= ; : w w u w.t - u u u 3 u u u u u u u b :.u u u u u u u u u u u u u u u u u u u u u u u u u u u u u ; u u u = 0 w.t 2 2 - * = ",
"= ; : w w u 0.t - u u u 3 q q 4 u u u u u u u u u u u u u u u u u u u u u u u u u u u u u u u u u u 4 ; u u u = 0 w.S R R R E = ",
"= ; : w w u 0.u - u u u 3 q q q q q q q e u u u u u y u u u u u u u u u t t e t u u q q q q 4 q 4 q q ; u u u = w 0.W j ' K O : ",
"= ; : w w u 0.u - u u u g } | { 5 5 5 k } } } I % % % 5 } } } } { 5 5 5 j } } }  .5 5 5 h } } } } 1 % ; u u u = w 0.G 5 + 6 . 3 ",
"= ; : w w l 0.u - u u u g } 7 5 5 5 } } } } { 5 5 5 9 } { } } 8 5 5 % } } } } 9 5 5 5 } } } } p 5 5 5 ; u u u = e 0.G L + f . 3 ",
"= ; : w w l 0.z - u u u g 5 5 5 5 } } } } 9 5 5 5 ] } J I } 5 5 % % } [ { } 5 5 5 5 } { H P 5 5 5 1 } ; u u u = e 0.G [ $ & . 3 ",
"= ; : w w c 0.c - u u u : e e q q t u t u u u u u u u u u u u u u e q q q e e e e e e q e q q q e q q ; u u u = t 0.G H % ... 3 ",
"= ; : w w c 0.c ; u u e : u u u u u u u u u u u u u u u u u u u u u u u u u u u u u u u u u u u u u u ; u u u = u 0.T + . X o : ",
"= ; : w w c 0.b : l l e > l l l u l u l l l l l l l l l u u u u l l l l u u l l l l l l l l l l l l l ; l u l = u 0.c v v v v = ",
"= ; : w w c w.n : u e e w w w w w w l u l l u l l l l l l l u l l l u u u l l l l l l l u : r r r r r ; l l l = u w.b > 0 : ; = ",
"= ; : w w b w.m : u u q 4 u x l x ; l l l l u u l l l l l l l l l l l u u l l l u l l l u : ; x x x x l l l l = u u.E . . . i ; ",
"= ; : w w b t.N : u u t l l l l x ; l l u u u u u u u u l l l l u u u u u u u u u l l l l : ; e l l l l l l u = u t.W @ @ @ v ; ",
"= ; : w w n y.B : u l l l l l l x ; l l l l l l l l l l l l l l l l l l l l l l l l l l l : ; l l l l l l l l = i y.R _ ) C ^ ; ",
"= ; : w w m p.Z 3 u l l l l l l x ; l l l l l l l l l l l l l l l l l l l l l l l l l l l : ; x l l l l l l 4 = z p.E s ( V ^ ; ",
"= ; : w w m s.S 3 l l l l l l l x ; l l l l l l l l l l l l l l l l l l l l l l l l l l l 0 ; l l l l l l l t = c s.W d W A ^ ; ",
"= ; : w w m s.S 3 l l l l l l l x ; l l l l l l l l l l l l l l l l l l l l l l l l l l l w ; l l l l l l l l = c g.W s W C E ; ",
"= ; : w w m g.D 3 l l l l l l l x ; u l l l l l l l l l l l l l l l l l l l l l l l l l l w ; l l l l x l l l = c f.W ` #.a / ; ",
"= ; : w w N h.F 3 l l l l l l l x ; q l l l l l l l l l l l l l l l l l l l l l l l l l l w ; l l t q l e l l = c l.^ A E Z ,.; ",
"= ; : w w N l.F 3 l l t - - - = = ; q l l l l l l l l l l l l l l l l l l l l l l l l l l w - - - - 2 2 e l l = c k.m 2 2 - * = ",
"= ; : w w N k.F 3 l l t : u u q q q q l l l l l l l l l l l l l l l l l l l l l l l l l l l l l l l l ; t l l = c c.B w w > - = ",
"= ; : w w N x.F 3 l l t > l l l l l l l l l l l l l l l l l l l l l l l l l l l l l l l l l l l l l l ; l l l = c c.Z w w > ; = ",
"= ; : w w N x.F 3 l l e , l l l l l l l l l l l l l l l l l l l l l l l l l l l l l l l l l l l l l l ; l l l = c c.S w w > ; = ",
"= ; : w w N k.F 3 l l e , l l l l e e l l l l l l l l l l l l l l l l l l l l l l l l l l e q u l l l ; l l l = c z.B w w > ; = ",
"= ; : w w N l.F 3 l l q r r r r r ; e l l l l l l l l l l l l l l l l l l l l l l l l l u 3 > r r r r r l l l = c l.B w w > ; = ",
"= ; : w w N f.F 3 l l t l l l l x ; e l l l l l l l l l x l l l x l l l l x x l l l l l x 3 ; l l l l x l l l = c h.B w w > ; = ",
"= ; : w w m g.D 3 l l l l l l l x ; u l l l l l x x l l l l l l x l l l l l l l l l l l l 3 ; l l l l l l l l = c g.B w w > ; = ",
"= ; : w w m s.S 3 l l l l l l l x ; l l l l l l l l l l l l l l l l l l l l l l l l l l l 3 ; l l l l l l l l = c s.N w w > ; = ",
"= ; : w w m p.S 3 l l l l l l l x ; l l l l l l l l l l l l l l l l l l l l l l l l l l l 3 ; l l l x l l l l = c a.N w w > ; = ",
"= ; : w w m p.Z 3 l l l l l x x x : x l l l l l l l l l x x l l l l l l l l l l l l l l u 3 ; x l l x l l l l = z p.m w w > ; = ",
"= ; : w w n t.B 3 l l l l l x x x : x l l l l l x l l l x l l l x x l l l l x l l l l l x 3 ; l l l l l l l l = i t.m w w > ; = ",
"= ; : w w b t.m : l l l e l l l x : x l l l x x x l l l x x l l x l l l x x x l l l e l l 3 : e x l l l l l l = u t.m w w > ; = ",
"= ; : w w b w.m : l l t q 4 e l x ; x l l l l l l l l x x x l l x l l l l x x x l l q e x w : q q l l l l l l = u w.b w w > ; = ",
"= ; : w w c 0.n ; l l e @ @ @ @ @ ; x l l l x l l l l x x x l l l l l l x x l x l q e e x w @ @ @ @ @ @ l l x = u w.b w w > ; = ",
"= ; : w w c 0.b - l l q > l l l l l l l l x x x l l l u q q q l q l l e l x l x l e t l l l l l x l l ; l l l = t 0.c w w > ; = ",
"= ; : w w c 0.c - l l e > l l l ; * @ @ * @ @ * @ @ @ @ @ @ @ @ @ @ @ @ @ @ @ = @ @ @ @ @ @ = > x x l ; l x x = t 0.c w w > ; = ",
"@ ; : w w c 0.c - l l t > l l l > M M M M M M M M M M M M M M M M M M M M M M M M M M M M M r > l l l ; l l l = e 0.c w w > ; = ",
"@ ; : w w l 0.z - l l l : l l l w l l l l l l l l l l l l l l l l l l l l l l l l l l l l l r > l l l ; l l l = t 0.c w w > ; = ",
"@ ; : w w l 0.u - t l l : q q l w u l l l l l l l l l l l l l t r t t t t t t r r r t t t u r > l l t ; l l l = e 0.l w w > ; = ",
"@ = : w w u 0.u - q l l : q 4 l , r r r r r r r r r r r r r r r r r r r r r r r r r r r r r r > l x q ; e t q = w 0.l w w > ; = ",
"@ # : w w u 0.t - q q l : q q q q e l l l l l l u t u l l l l e 4 q q q 4 e e t l l l e 4 e e e e q q ; e q q = q 0.u w w > ; = ",
"@ # - w w t w.t -                                                                                             = 3 w.e w w > ; = ",
"@ # - w w e w.e -                                                                                             = : w.q w w > ; = ",
"@ # - w w 4 u.t -                                                                                             = ; u.4 2 w > * = ",
"@ # - < < 2 t.w -                                                                                             = - t.2 2 3 > * @ ",
"@ # - < < < y.: -                                                                                             = - y.2 2 2 - * @ ",
"@ # - < < 2 i.; -                                                                                             = - p.2 2 2 - * @ ",
"@ # - < < 2 u r 6.                                                                                            6.- w 2 2 2 - * @ "
};
