/* XPM */
static char *_8bacfe3fc314ff6ccf8b479557eb716KHGWjKphD4xsCCvV[] = {
/* columns rows colors chars-per-pixel */
"64 64 140 2 ",
"   c #0b0a0a",
".  c #000000",
"X  c #080A06",
"o  c #0A0B0B",
"O  c #11100E",
"+  c #1B1B14",
"@  c #131B1C",
"#  c #191E1F",
"$  c #1E2016",
"%  c #24261B",
"&  c #262C1A",
"*  c #2A281E",
"=  c #1A1F20",
"-  c #162123",
";  c #1A2425",
":  c #17252A",
">  c #1A262A",
",  c #1C2A2C",a
"<  c #1E2D31",
"1  c #202627",
"2  c #2E2C22",
"3  c #212728",
"4  c #222C2E",
"5  c #282E2F",
"6  c #312E24",
"7  c #2E3520",
"8  c #28322F",
"9  c #232F32",
"0  c #282F30",
"q  c #213135",
"w  c #283234",
"e  c #263539",
"r  c #293639",
"t  c #27383D",
"y  c #293A3E",
"u  c #313C3D",
"i  c #423E2E",
"p  c #6B3535",
"a  c #733233",
"s  c #793132",
"d  c #3B4629",
"f  c #3B433A",
"g  c #494533",
"h  c #514B37",
"j  c #524E3B",
"k  c #2B3E43",
"l  c #313F41",
"z  c #2D4045",
"x  c #2F4449",
"c  c #334345",
"v  c #3E4646",
"b  c #32464A",
"n  c #35484C",
"m  c #3A4B4D",
"M  c #344D54",
"N  c #3C4F51",
"B  c #3F5153",
"V  c #4F4849",
"C  c #534444",
"Z  c #5B5540",
"A  c #425355",
"S  c #4C5353",
"D  c #445758",
"F  c #465A5B",
"G  c #485C5E",
"H  c #515E5E",
"J  c #635C42",
"K  c #6D674A",
"L  c #6B6344",
"P  c #736C4E",
"I  c #7C7553",
"U  c #415E60",
"Y  c #525F60",
"T  c #49666F",
"R  c #4D6F6E",
"E  c #546061",
"W  c #5A6566",
"Q  c #5A6768",
"!  c #5D6B6C",
"~  c #4A6972",
"^  c #4F717B",
"/  c #517573",
"(  c #557E7D",
")  c #616D6D",
"_  c #666F70",
"`  c #677677",
"'  c #6F7E7E",
"]  c #842F30",
"[  c #923031",
"{  c #817A57",
"}  c #56817F",
"|  c #89805D",
" . c #938B62",
".. c #958E6C",
"X. c #96916D",
"o. c #98936F",
"O. c #999673",
"+. c #9B9874",
"@. c #ADD074",
"#. c #547984",
"$. c #578281",
"%. c #598787",
"&. c #5A8887",
"*. c #5B8B8B",
"=. c #5E9292",
"-. c #7A8B8B",
";. c #619797",
":. c #649D9E",
">. c #7B9D9E",
",. c #67A3A4",
"<. c #6BA1A3",
"1. c #6BABAC",
"2. c #849594",
"3. c #80A3A3",
"4. c #86ADAD",
"5. c #83A9A9",
"6. c #94B6B6",
"7. c #AEB1B2",
"8. c #B0B2B3",
"9. c #A5CFCF",
"0. c #A6CFCF",
"q. c #A7D1D1",
"w. c #A7D0D0",
"e. c #A9D2D2",
"r. c #A8D1D1",
"t. c #AAD4D5",
"y. c #ABD6D6",
"u. c #AAD4D4",
"i. c #ACD7D8",
"p. c #AEDADA",
"a. c #AED9DA",
"s. c #B1DDDE",
"d. c #B5E2E3",
"f. c #B9E6E7",
"g. c #B8E7E8",
"h. c #BDEDED",
"j. c #BCECEC",
"k. c #BFEFF0",
"l. c #BFF1F1",
"z. c #C2F4F4",
/* pixels */
"      1 3 3 3 3 1 ; - - ; > > > > > > > > > > > > > > > > > > > > > > > > > > > > > > > > > > > > > > > , > , > , < < < <       ",
"      3 3 3 3 3 ; ; ; ; < < 9 9 < < < < < < < < < < < < < < 9 9 < < < < < < < < < < 9 < < < < < < < < < < < 9 9 9 q 9 9 9 <     ",
"    3 3 3 3 3 3 q q q q q q q q q q q q q e r r t t t y y k k k k k y y t t t r r e q q q q q q q q q q q q q q q q q q q <     ",
"    3 3 3 3 3 3 q q q q q q e k y.e.q.0.0.0.0.q.e.y.p.s.d.g.h.l.h.f.d.p.i.y.e.q.0.0.0.0.q.e.y.y.q q q q q q q q q q q q q q     ",
"  3 3 3 3 3 3 3 4 q q q q q q q q q e t t y k k c c c c b b b b b b b c c c c k k y t r w q q q q q q q q q q q q q q q q q q   ",
"  3 3 3 3 3 q q q q q q q q q @ @ @ @ @ @ @ @ @ @ @ @ @ @ @ @ @ @ @ @ @ @ @ @ @ @ @ @ @ @ @ @ @ @ - q q q q q q q q q q q q q   ",
"3 ; ; 1 q q q q q q q q q < @ @ k t t t t t t t t :.k t t t t t t t t t >.5.4.,.1.<.4.>.t t t t @ @ @ q q q q q q q q q q q q 9 ",
"- > , q q q q q q q q q , @ @ t t t t t b / ( &.=.;.y t t t t t t t t t t U *.;.;.=.%.t t t t t t @ @ @ q q q q q q q q q < , , ",
"- > , q q q q q q q q - @ @ t t t t t t b 3.t t t t t t t t t t t t t t t t k $.$.} t t t t t t t t - @ @ q q q q q q q q < > - ",
"- > , q q q q q q q @ @ @ t t t t t t t b 3.t t t t t t t t t t t t t t t t t t R t t t t t t t t t t - @ @ q q q q q q q < > - ",
"- > , q q q q q q @ @ @ 4 t t t t t t t b 3.t t t t t t t t t t t t t t t t t t t t t t t t t t t t t > , @ @ q q q q q q < > - ",
"- > , q q q q q @ @ @ t 4 w t t t t t t t 6.t t t t t t t t t t t t t t t t t t t t t t t t t t t t t > t q @ @ q q q q q < > - ",
"- > , q q q y > @ @ t t 4 0 0 0 0 0 r t t t t t t t t t t t t t t t t t t t t t t t t w r t t t t r 0 , t t e @ ; y q q q < > - ",
"- > , q q q k > ; t t t f ....X.........X.X...+.+.+.+.+.+.+.+.+.+.+.+.+.+.+.+.+.+.+.+.+.+.+.+.+.+.o.o.: t t t - ; k q q q < > - ",
"- > , q q q y.9 ; k k t f  . .2 6 6 6  . . . .Z * 2 6 P  . . . .2 6 6 6  . . . .6 6 6 6  . . . .6 6 2 , t t t - ; y.q q q < > - ",
"- > , q q e y.w ; k k t f I 6 6 6 j  . . . .6 6 6 6  . .K  .I 6 6 * g  . . .{ 6 6 6 g  . . .| 6 6 6 i > t t t - , y.q q q < > - ",
"- > , q q r e.w ; t t t 8 j j j j j j j j j j j j j j j j j j j j j j j j j j j j j j j j j j j j j j > t t t - 4 e.e q q < = - ",
"- > , q q t e.r ; t t r , 0 r r t t t t t t k t t t t t t t t t t t t t t t t t t t t t t 5 w t t t 5 , t t t - 9 e.r 3 3 ; = - ",
"- > , q q y q.r ; k k w , k k k k k k k k k t t k k k k k k k k k k k k k k k k k k k k k k k k k k k , k k k - 9 e.D W W W Q - ",
"- > , q q y q.r ; k t 0 < t k k k k k k k k t t k k k k k k k k k k k t k k k k k k k k k 0 w 5 k k k , t t k - q q.! h { L O , ",
"- > , q q y q.y ; t r 5 #.#.#.#.~ > k k k k t t t t t t k k k k k k t t t t t k k k t t t , , M M M M n k k k - q q.H 6 + 7 . 4 ",
"- > , q q k q.y ; t r w k k z z z , k k k k t t t t k t k k t k k k t t t t t k k k t t y , , z k k k k k k y - w q.H P + d . 4 ",
"- > , q q k q.l ; t k k k k k k z , k k k k k k k k k k k k k k k k k k k k k k k k k k k , , t k k k k k k k - r q.H | $ & . 4 ",
"- > , q q c q.c ; t k k k k k k z , k k k k k k k k k k k k k k k k k k k k k k k k k k k , , z k k k k k k t - r q.Y J % @.. 4 ",
"- > , q q c q.c > k k k k k k k z > k k k k k k k k k k k k k k k k k k k k k k k k k k k , , z k k k z z k 0 - r q.E + . X o , ",
"- > , q q c q.b , k k k k k k k z > k k k k k k k k k k k k k k k k k k k k k k k k k k k q , z k k k k z k y - r q.c v v v v - ",
"- > , q q c e.m , k k k k k k k z , k k k k k k k k k k k k k k k k k k k k k k k k k k k q , k k k k k k k k - y e.b < 9 , > - ",
"- > , q q b e.m , k k k k k k k z , w k k k k k k k k k k k k k k k k k k k k k k k k k k q , k k k k k k k k - y u.Q . . . u > ",
"- > , q q b y.N , k k r w 0 0 k z , 0 k k k k k k k k k k k k k k k k k k k k k k k k k k q , k w 0 0 0 0 k k - y y.! @ @ @ v > ",
"- > , q q n i.B , k k r @ @ @ @ @ - 0 k k k k k k k k k k k k k k k k k k k k k k k k k k q @ @ @ @ @ @ r k k - l i.W ] ' C ) > ",
"- > , q q m p.A 4 k k r < k k k 0 0 w k k k k k k k k k k k k k k k k k k k k k k k k k k k k k k k k , t k k - l p.Q a ` V ) > ",
"- > , q q m s.D 4 k k r < k k k k k k k k k k k k k k k k k k k k k k k k k k k k k k k k k k k k k k , k k k - c s.! s ! S ) > ",
"- > , q q m s.D 4 k k r < k k k k k k k k k k k k k k k k k k k k k k k k k k k k k k k k k k k k k k , k k k - c d.! a ! C Q > ",
"- > , q q m d.F 4 k k w , e e e q 0 0 r k k k k k k k k k k k k k k k k k k k k k k k k k 4 , 4 9 q w > k k k - c f.! [ -.p _ > ",
"- > , q q N f.F 4 k k 0 T ~ ~ ~ ~ , 0 k k k k k k k k k k k k k k k k k k k k k k k k k k 4 > ^ ^ ^ ^ ~ k k k - c j.) S Q A 2.> ",
"- > , q q N j.G 4 k k k k k k k z , r k k k k k k k k k z z z k k k k k z z z k k k k k k 4 , k k k k k k k k - c h.m 3 3 ; = - ",
"- > , q q N h.G 4 k z z z k k k z , t k z z k k k k k z z z k k k k k z z z k k k k k k k 4 , k z k k k k k k - c z.B q q < ; - ",
"- > , q q N l.G 4 k k z k k k k z , k k z z k k k k k k k z k k k k k k k z k k k k k k k 4 , k z z k k k k k - c z.A q q < > - ",
"- > , q q N l.G 4 k z z k k k k z , k k z z k k k k k k k k k k k k k k k k k k k k k k w 4 , k z z k k k k k - c z.D q q < > - ",
"- > , q q N h.G 4 k z k k k k k z , z k k z k k k k k k k k k k k k k k k k k k k k k k k 4 , k z k k k k k z - c l.B q q < > - ",
"- > , q q N j.G 4 k k k k k k k z , z k k k k k z z k k k k k k k k k k k k k k k k k k k 4 , k k k k k k k k - c j.B q q < > - ",
"- > , q q N f.F 4 k k t 5 k k k z , z k k k k k z k k k k k k k k k k k k k k k k k 0 r k 4 > 0 z k k k k k k - c f.B q q < > - ",
"- > , q q m d.F 4 k k r 5 0 5 0 r , z k k k k k z z k k k k k k z k k k k k k k k w 0 0 k q , 5 5 5 q t k k k - c d.B q q < > - ",
"- > , q q m s.D 4 k k 0 - ; ; , , , z k k k k k z z k k k k z k t k k z k k k k k 0 0 0 k 9 , > > ; - , k k k - c s.N q q < > - ",
"- > , q q m p.D 4 k k 0 < k k k t k r r 5 5 5 5 q r 5 5 0 5 5 5 5 5 0 5 5 5 w e e r r e e t t k k k k , k k k - c a.N q q < > - ",
"- > , q q m p.A 4 k k r , k k k 9 b b b b b b b b b b b b b b b b b b b b b b b b b b b b b x < k k k , k k k - l p.m q q < > - ",
"- > , q q n y.B 4 k z k < k k k q k k k k k k k k k k k k k k k k k k k k k k k k k k k k k e < k k k > k k k - u y.m q q < > - ",
"- > , q q b y.m , k z k , 5 t k q k k k k k k k k k k k k k k k k k k k t k k k k t r t k k e < k k k > k k k - y y.m q q < > - ",
"- > , q q b e.m , 0 k k , 0 0 k 9 ; ; ; ; ; ; ; ; ; ; ; ; ; ; ; ; ; ; ; ; ; ; ; ; ; ; ; ; ; > < k k 0 , r k w - y e.b q q < > - ",
"- > , q q c q.m > 0 r k , 0 0 r t k k k k k k k k k k k k k k k k k t k k k k k k k k k k k k k k t 0 , w 0 0 - r e.b q q < > - ",
"- > , q q c q.b ;                                                                                             - r q.c q q < > - ",
"- > , q q c q.c ;                                                                                             ; r q.c q q < > - ",
"@ > , q q c q.c ;                                                                                             - r q.c q q < > - ",
"@ > , q q k q.l ;                                                                                             - w q.c q q < > - ",
"@ > , q q k q.y ;                                                                                             - w q.k q q < > - ",
"@ - , q q y q.y ;                                                                                             - q q.k q q < > - ",
"@ # , q q y q.r ;                                                                                             - 0 q.r q q < > - ",
"@ # ; q q r e.r ;                                                                                             - 4 e.w q q < > - ",
"@ # ; q q r e.r ;                                                                                             - , e.0 q q < > - ",
"@ # ; q q 5 u.w ;                                                                                             - > u.5 3 q < = - ",
"@ # ; 1 3 3 y.q ;                                                                                             - ; y.3 3 4 < = @ ",
"@ # ; 1 1 3 i., ;                                                                                             - ; i.3 3 3 ; = @ ",
"@ # ; 1 1 3 i.> ;                                                                                             - ; p.3 3 3 ; = @ ",
"@ # ; 1 3 3 y e 7.                                                                                            8.; q 3 3 3 ; = @ "
};
