/* XPM */
static char *_9cfab049ec8440ccbe49499fa4570bfhAo6VNtWiChw60BK[] = {
/* columns rows colors chars-per-pixel */
"64 64 130 2 ",
"   c #0b0a0a",
".  c #000000",
"X  c #080A06",
"o  c #0A0B0B",
"O  c #11100E",
"+  c #1B1B14",
"@  c #131B1C",
"#  c #191E1F",
"$  c #1E2016",
"%  c #212618",
"&  c #262C1A",
"*  c #151F20",
"=  c #1A1F20",
"-  c #162123",
";  c #1A2425",
":  c #1A262A",
">  c #1C2A2D",
",  c #1E2D31",
"<  c #1F3134",
"1  c #202627",
"2  c #212728",
"3  c #212B2D",
"4  c #282E2F",
"5  c #312D23",
"6  c #2E3520",
"7  c #212F32",
"8  c #282F30",
"9  c #213135",
"0  c #293234",
"q  c #243539",
"w  c #293639",
"e  c #27383C",
"r  c #2B3A3D",
"t  c #313C3D",
"y  c #6B3535",
"u  c #733233",
"i  c #793132",
"p  c #3B4629",
"a  c #514B37",
"s  c #2C3E43",
"d  c #313F41",
"f  c #2D4045",
"g  c #2F4348",
"h  c #324144",
"j  c #314245",
"k  c #324245",
"l  c #334346",
"z  c #334446",
"x  c #354447",
"c  c #334345",
"v  c #3E4646",
"b  c #354548",
"n  c #354648",
"m  c #354649",
"M  c #364649",
"N  c #364649",
"B  c #37494B",
"V  c #3A4B4D",
"C  c #3C4F51",
"Z  c #3F5153",
"A  c #4F4849",
"S  c #534444",
"D  c #445457",
"F  c #425355",
"G  c #4C5353",
"H  c #445758",
"J  c #465A5B",
"K  c #485C5E",
"L  c #515E5E",
"P  c #635C42",
"I  c #6B6344",
"U  c #726B4E",
"Y  c #525F60",
"T  c #46646E",
"R  c #546061",
"E  c #586566",
"W  c #5C6667",
"Q  c #5A6768",
"!  c #5B6A6B",
"~  c #5C6969",
"^  c #5E6C6C",
"/  c #616D6D",
"(  c #666F70",
")  c #677677",
"_  c #6F7E7E",
"`  c #842F30",
"'  c #923031",
"]  c #807957",
"[  c #89805F",
"{  c #ADD074",
"}  c #7A8B8B",
"|  c #849594",
" . c #AEB1B2",
".. c #A5CFCF",
"X. c #A6CFCF",
"o. c #A6D0D0",
"O. c #A7D0D0",
"+. c #A7D1D1",
"@. c #A7D0D0",
"#. c #A8D1D1",
"$. c #A8D2D2",
"%. c #A9D2D2",
"&. c #A9D3D3",
"*. c #A8D2D3",
"=. c #AAD4D4",
"-. c #AAD4D5",
";. c #AAD5D5",
":. c #ABD5D6",
">. c #ABD6D6",
",. c #ACD7D7",
"<. c #AAD4D4",
"1. c #ACD7D8",
"2. c #AFDBDB",
"3. c #ACD8D8",
"4. c #AED9DA",
"5. c #B0DCDD",
"6. c #B1DDDE",
"7. c #B3E0E0",
"8. c #B4E1E2",
"9. c #B7E6E7",
"0. c #B5E2E3",
"q. c #B9E6E7",
"w. c #B8E7E8",
"e. c #BDEEEE",
"r. c #BCECEC",
"t. c #BCECEC",
"y. c #BFEFF0",
"u. c #BFF1F1",
"i. c #BFF1F1",
"p. c #C2F4F4",
/* pixels */
"      1 2 2 2 2 1 ; - - ; : : : : : : : : : : : : : : : : : : : : : : : : : : : : : : : : : : : : : : : > > > > > , , , ,       ",
"      2 2 2 2 2 ; ; ; ; , , 7 7 , , , , , , , , , , , , , , , , , , , , , , , , , , , , , , , , , , , , , , 7 7 7 9 7 7 7 ,     ",
"    2 2 2 2 2 2 9 9 9 9 9 9 9 9 9 9 9 9 9 q q w r r r r r s s s r r r r r r r w w q 9 9 9 9 9 9 9 9 9 9 9 9 9 9 9 9 9 9 9 ,     ",
"    2 2 2 2 2 2 9 9 9 9 9 9 q s :.$.+.X.X.X.X.X.$.:.3.5.8.w.e.u.t.9.5.3.,.:.$.+.X.X.X.X.+.+.:.:.9 9 9 9 9 9 9 9 9 9 9 9 9 9     ",
"  2 2 2 2 2 2 2 3 9 9 9 9 9 9 9 9 9 q r r r s s d k k l b b b b b x x k k c c s s r r w 0 9 9 9 9 9 9 9 9 9 9 9 9 9 9 9 9 9 9   ",
"  2 2 2 2 2 9 9 9 9 9 9 9 9 9 @ @ @ @ @ @ @ @ @ @ @ @ @ @ @ @ @ @ @ @ @ @ @ @ @ @ @ @ @ @ @ @ @ @ - 9 9 9 9 9 9 9 9 9 9 9 9 9   ",
"2 ; ; 1 9 9 9 9 9 9 9 9 9 < @ @ g > s s s s s s s s s s s s s s s s s s s s s s s s s s s 7 : s @ @ @ 9 9 9 9 9 9 9 9 9 9 9 9 7 ",
"- : > 9 9 9 9 9 9 9 9 9 > @ @ s f > r s s s s s s s s s s s s s s s s s s s s s s s s s s 7 : s s @ @ @ 9 9 9 9 9 9 9 9 9 , > > ",
"- : > 9 9 9 9 9 9 9 9 - @ @ s s f > 8 s s s s s s s s s s s s s s s s s s s s s s s s s s 9 > s s s - @ @ 9 9 9 9 9 9 9 9 , : - ",
"- : > 9 9 9 9 9 9 9 @ @ @ 4 3 2 9 > 8 s s s s s s s s s s s s s s s s s s s s s s s s s s 9 : 3 4 4 8 - @ @ 9 9 9 9 9 9 9 , : - ",
"- : > 9 9 9 9 9 9 @ @ @ : > , 2 2 2 8 s s s s s s s s s s s s s s s s s s s s s s s s s s e 0 9 0 0 0 : > @ @ 9 9 9 9 9 9 , : - ",
"- : > 9 9 9 9 9 @ @ @ w , s s s r s s s s s s s s s s s s s s s s s s s s s s s s s s s s s s s s s s > s 9 @ @ 9 9 9 9 9 , : - ",
"- : > 9 9 9 r : @ @ s 0 , s s s s s s s s s s s s s s s s s s s s s s s s s s s s s s s s s s s s s s > s s e @ ; r 9 9 9 , : - ",
"- : > 9 9 9 s : ; s s 0 , s s s s r r s s s s s s s s s s s s s s s s s s s s s s s s s s w 0 s s s s > s s s - ; s 9 9 9 , : - ",
"- : > 9 9 9 :.7 ; s s 0 9 9 9 9 9 > 8 s s s s s s s s s s s s s s s s s s s s s s s s s w 3 < q q q q < s s s - ; :.9 9 9 , : - ",
"- : > 9 9 q :.0 ; f f 0 s s s s s > 0 s s s s s s s s s s s s s s s s s s s s s s s s s f 3 > s s s s s s s s - > :.9 9 9 , : - ",
"- : > 9 9 w $.0 ; s s s s s s s f > w s s s s s s s s s s s s s s s s s s s s s s s s s s 3 > s s s s s s s s - 3 $.q 9 9 , = - ",
"- : > 9 9 r $.w ; s s s s s s f f > r s s s s s s s s s s s s s s s s s s s s s s s s s s 3 > s s s s s s s s - 7 $.w 2 2 ; = - ",
"- : > 9 9 r +.w ; s s s s s s f f > s s s s s s s s s s s s s s s s s s s s s s s s s s f 3 > s s s s s s s s - 7 $.D E E E ~ - ",
"- : > 9 9 r +.r ; s s s s s s s f > s s s s s s s s s s s s s s s s s s s s s s s s s s r 3 > s s s s s s s s - 9 +.~ a ] I O > ",
"- : > 9 9 r +.r ; s s s s s s s f > f s s s s s s s s s s s s s s s s s s s s s s s s s f 3 > s s s s s s s s - 9 +.L 5 + 6 . 3 ",
"- : > 9 9 s +.r ; s s s 0 s s s f > f s s s s s s s s s s s s s s s s s s s s s s s w s s 3 > r s s s s s s s - 0 +.L U + p . 3 ",
"- : > 9 9 s +.d ; s s w 8 0 w f f > f s s s s s s s s s s s s s s s s s s s s s s s 8 8 s 7 > 8 0 f s s s s s - 0 +.L [ $ & . 3 ",
"- : > 9 9 c +.c ; s s 0 @ @ @ @ @ > f s s s s s s s s s s s s s s s s s s s s s s 8 8 8 s 9 * @ @ @ @ @ s s s - w +.Y P % { . 3 ",
"- : > 9 9 k +.x : s s 8 , s s s s s s s s f f s s s s s 0 4 8 s 4 f f r s f s s s 8 0 s s s s s s s f > s s s - w +.R + . X o > ",
"- : > 9 9 k +.b > s s 8 , s s s @ @ @ @ @ @ @ @ @ @ @ @ @ @ @ @ @ @ @ @ @ @ @ @ @ @ @ @ @ @ @ , s s s > s s s - r +.x v v v v - ",
"- : > 9 9 x $.B > s s 0 , s s s 7 T T T T T T T T T T T T T T T T T T T T T T T T T T T T T q , s s s : s s s - r $.b , , > : - ",
"- : > 9 9 b $.V > s s s > s s s 9 s s s s s s s s s s s s s s s s s s s s s s s s s s s s s q , s s s > s s s - r <.~ . . . t : ",
"- : > 9 9 b :.C > r s s > 8 0 s 9 s s s s s s s s s s s s s s s r w 0 0 0 0 0 0 0 0 0 0 0 s q , s s r > s s s - r :.~ @ @ @ v : ",
"- : > 9 9 B ,.Z > 8 s s > 8 4 s > 9 9 9 9 9 9 9 9 9 9 9 9 9 9 9 9 9 9 9 9 9 9 9 9 9 9 9 9 9 9 , s s 8 > 0 r 8 - d ,.E ` _ S / : ",
"- : > 9 9 V 3.F 3 8 8 s > 8 8 8 8 r s s s s s s s s s s s s s r 0 4 4 8 0 w r s s s s w 0 w r s r 8 8 > 0 8 8 - d 3.~ u ) A / : ",
"- : > 9 9 V 5.D 3                                                                                             - c 5.^ i ^ G / : ",
"- : > 9 9 V 5.H 3                                                                                             - l 8.^ u ^ S W : ",
"- : > 9 9 V 8.J 3                                                                                             - l 9.^ ' } y ( : ",
"- : > 9 9 C q.J 3                                                                                             - x t./ G Q F | : ",
"- : > 9 9 C t.K 3                                                                                             - x e.V 2 2 ; = - ",
"- : > 9 9 C e.K 3                                                                                             - x p.Z 9 9 , ; - ",
"- : > 9 9 C u.K 3                                                                                             - x p.F 9 9 , : - ",
"- : > 9 9 C u.K 3                                                                                             - x p.F 9 9 , : - ",
"- : > 9 9 C e.K 3                                                                                             - x y.Z 9 9 , : - ",
"- : > 9 9 C t.K 3                                                                                             - x t.Z 9 9 , : - ",
"- : > 9 9 C 9.J 3                                                                                             - x q.Z 9 9 , : - ",
"- : > 9 9 V 8.J 3                                                                                             - l 8.Z 9 9 , : - ",
"- : > 9 9 V 5.H 3                                                                                             # c 5.C 9 9 , : - ",
"- : > 9 9 V 3.D 3                                                                                               c 2.C 9 9 , : - ",
"- : > 9 9 V 3.F 3                                                                                               d 3.V 9 9 , : - ",
"- : > 9 9 B :.Z 3                                                                                               t :.V 9 9 , : - ",
"- : > 9 9 b :.V >                                                                                               r :.V 9 9 , : - ",
"- : > 9 9 b $.V >                                                                                               r $.b 9 9 , : - ",
"- : > 9 9 x +.B :                                                                                               r $.b 9 9 , : - ",
"- : > 9 9 k +.b ;                                                                                               w +.x 9 9 , : - ",
"- : > 9 9 k +.x ;                                                                                               w +.k 9 9 , : - ",
"@ : > 9 9 c +.c ;                                                                                               0 +.k 9 9 , : - ",
"@ : > 9 9 s +.d ;                                                                                               0 +.c 9 9 , : - ",
"@ : > 9 9 s +.r ;                                                                                               0 +.s 9 9 , : - ",
"@ - > 9 9 r +.r ;                                                                                               9 +.s 9 9 , : - ",
"@ # > 9 9 r +.w ;                                                                                               7 +.r 9 9 , : - ",
"@ # ; 9 9 w $.w ;                                                                                               3 $.0 9 9 , : - ",
"@ # ; 9 9 0 $.0 ;                                                                                               > $.8 9 9 , : - ",
"@ # ; 9 9 4 <.0 ;                                                                                               : <.4 2 9 , = - ",
"@ # ; 1 2 2 :.9 ;                                                                                               ; :.2 2 3 , = @ ",
"@ # ; 1 1 2 ,.> ;                                                                                               ; ,.2 2 2 ; = @ ",
"@ # ; 1 1 2 1.: ;                                                                                               ; 3.2 2 2 ; = @ ",
"@ # ; 1 2 2 r q  .                                                                                              ; 9 2 2 2 ; = @ "
};
