/* XPM */
static char *b33fb417482d4c66ddac87121d3fd9a7V8waXsx87H3EhpEF[] = {
/* columns rows colors chars-per-pixel */
"64 64 128 2 ",
"   c #0b0a0a",
".  c #000000",
"X  c #080A06",
"o  c #0A0B0B",
"O  c #11100E",
"+  c #1B1B14",
"@  c #131C1C",
"#  c #191E1F",
"$  c #1E2016",
"%  c #212618",
"&  c #262C1A",
"*  c #1A1F20",
"=  c #162123",
"-  c #1A2425",
";  c #1A262A",
":  c #1D2A2D",
">  c #1E2D31",
",  c #1E3032",
"<  c #202627",
"1  c #212728",
"2  c #212B2D",
"3  c #282E2F",
"4  c #312D23",
"5  c #2E3520",
"6  c #212E32",
"7  c #282F30",
"8  c #213135",
"9  c #293234",
"0  c #263539",
"q  c #293639",
"w  c #27383C",
"e  c #2C3A3D",
"r  c #313C3D",
"t  c #6B3535",
"y  c #733233",
"u  c #793132",
"i  c #3B4629",
"p  c #514B37",
"a  c #2C3F44",
"s  c #313F41",
"d  c #2D4045",
"f  c #2F4348",
"g  c #324245",
"h  c #334346",
"j  c #324245",
"k  c #334446",
"l  c #354447",
"z  c #334345",
"x  c #3E4646",
"c  c #354548",
"v  c #354648",
"b  c #354649",
"n  c #364649",
"m  c #364649",
"M  c #37494B",
"N  c #3A4B4D",
"B  c #3C4F51",
"V  c #3F5153",
"C  c #4F4849",
"Z  c #534444",
"A  c #445457",
"S  c #425355",
"D  c #4C5353",
"F  c #445758",
"G  c #465A5B",
"H  c #485C5E",
"J  c #515E5E",
"K  c #635C42",
"L  c #6B6344",
"P  c #726B4E",
"I  c #525F60",
"U  c #546061",
"Y  c #586566",
"T  c #5C6667",
"R  c #5A6768",
"E  c #5B6A6B",
"W  c #5C6969",
"Q  c #5E6C6C",
"!  c #4E6F7A",
"~  c #616D6D",
"^  c #666F70",
"/  c #677677",
"(  c #6F7E7E",
")  c #842F30",
"_  c #923031",
"`  c #807957",
"'  c #89805F",
"]  c #ADD074",
"[  c #7A8B8B",
"{  c #849594",
"}  c #AEB1B2",
"|  c #A5CFCF",
" . c #A6CFCF",
".. c #A6D0D0",
"X. c #A7D0D0",
"o. c #A7D1D1",
"O. c #A7D0D0",
"+. c #A8D1D1",
"@. c #A8D2D2",
"#. c #A9D2D2",
"$. c #A9D3D3",
"%. c #A8D2D3",
"&. c #AAD4D4",
"*. c #AAD4D5",
"=. c #AAD5D5",
"-. c #ABD5D6",
";. c #ABD6D6",
":. c #ACD7D7",
">. c #AAD4D4",
",. c #ACD7D8",
"<. c #AFDBDB",
"1. c #ACD8D8",
"2. c #AED9DA",
"3. c #B0DCDD",
"4. c #B1DDDE",
"5. c #B3E0E0",
"6. c #B4E1E2",
"7. c #B7E6E7",
"8. c #B5E2E3",
"9. c #B9E6E7",
"0. c #B8E7E8",
"q. c #BDEEEE",
"w. c #BCECEC",
"e. c #BCECEC",
"r. c #BFEFF0",
"t. c #BFF1F1",
"y. c #BFF1F1",
"u. c #C2F4F4",
/* pixels */
"      < 1 1 1 1 < - = = - ; ; ; ; ; ; ; ; ; ; ; ; ; ; ; ; ; ; ; ; ; ; ; ; ; ; ; ; ; ; ; ; ; ; ; ; ; ; ; ; : : : : > > > >       ",
"      1 1 1 1 1 - - - - > > 6 6 > > > > > > > > > > > > > > > > > > > > > > > > > > > > > > > > > > > > > > 6 6 6 8 6 6 6 >     ",
"    1 1 1 1 1 1 8 8 8 8 8 8 8 8 8 8 8 8 8 0 q w e e e e e a a a a a e e e e e w q 0 8 8 8 8 8 8 8 8 8 8 8 8 8 8 8 8 8 8 8 >     ",
"    1 1 1 1 1 1 8 8 8 8 8 8 0 a -.@.o. . . . .o.@.-.1.3.6.0.q.t.q.7.5.1.:.-.@.o. . . . .o.@.-.-.8 8 8 8 8 8 8 8 8 8 8 8 8 8     ",
"  1 1 1 1 1 1 1 2 8 8 8 8 8 8 8 8 8 0 e e e a a j h h l c c c c c c c k h h j a a e e w 9 8 8 8 8 8 8 8 8 8 8 8 8 8 8 8 8 8 8   ",
"  1 1 1 1 1 8 8 8 8 8 8 8 8 8 @ @ @ @ @ @ @ @ @ @ @ @ @ @ @ @ @ @ @ @ @ @ @ @ @ @ @ @ @ @ @ @ @ @ = 8 8 8 8 8 8 8 8 8 8 8 8 8   ",
"1 - - < 8 8 8 8 8 8 8 8 8 > @ @ f ; a a a a a a a a a a a a a a a a a a a a a a a a a a q 2 ; a @ @ @ 8 8 8 8 8 8 8 8 8 8 8 8 6 ",
"= ; : 8 8 8 8 8 8 8 8 8 ; @ @ a d ; d a a a a a a a a a a a a a a a a a a a a a a a a a d 2 ; a a @ @ @ 8 8 8 8 8 8 8 8 8 > : : ",
"= ; : 8 8 8 8 8 8 8 8 = @ @ a a d ; d a d a a a a a a a a a a a a a a a a a a a a a e a a 2 ; a a a = @ @ 8 8 8 8 8 8 8 8 > ; = ",
"= ; : 8 8 8 8 8 8 8 @ @ @ q e a d ; d a a a a a a a a a a a a a a a a a a a a a a a 7 3 a 6 : 7 q a a - @ @ 8 8 8 8 8 8 8 > ; = ",
"= ; : 8 8 8 8 8 8 @ @ @ = = @ @ @ ; d a a a a a a a a a a a a a a a a a a a a a a 7 7 7 a 8 = @ @ @ @ @ : @ @ 8 8 8 8 8 8 > ; = ",
"= ; : 8 8 8 8 8 @ @ @ 7 > d d d d a a a a a a a a a a d q 3 7 d 3 a d a d a a a a 7 9 a a d d d d d d : a 8 @ @ 8 8 8 8 8 > ; = ",
"= ; : 8 8 8 e ; @ @ a 7 > a a a @ @ @ @ @ @ @ @ @ @ @ @ @ @ @ @ @ @ @ @ @ @ @ @ @ @ @ @ @ @ @ > a a a ; a a w @ - e 8 8 8 > ; = ",
"= ; : 8 8 8 a ; - a a q > a a a 6 ! ! ! ! ! ! ! ! ! ! ! ! ! ! ! ! ! ! ! ! ! ! ! ! ! ! ! ! ! 0 > a a a ; a a a = - a 8 8 8 > ; = ",
"= ; : 8 8 8 -.6 - d d a > a a a 8 a a a a a a a a a a a a a a a a a a a a a a a a a a a a a 0 > d a a ; a a a = - -.8 8 8 > ; = ",
"= ; : 8 8 0 -.9 - a d a : 7 9 a 8 a a a a a a a a a a a a a a a a w 9 9 9 9 9 9 9 9 9 9 7 a 0 > d a e ; a a d = : -.8 8 8 > ; = ",
"= ; : 8 8 q @.9 - 7 a a : 7 3 a : 8 8 8 8 8 8 8 8 8 8 8 8 8 8 8 8 8 8 8 8 8 8 8 8 8 8 8 8 8 , > a a 7 ; 9 a 7 = 2 @.0 8 8 > * = ",
"= ; : 8 8 e @.q - 7 7 a : 7 7 7 7 a a a a a a a a a a a a a a a q 7 7 9 q e a a a a a w q e a a a 3 7 ; 9 7 7 = 6 @.w 1 1 - * = ",
"= ; : 8 8 e o.w -                                                                                             = 6 @.A Y Y Y W = ",
"= ; : 8 8 e o.e -                                                                                             = 8 o.W p ` L O : ",
"= ; : 8 8 e o.e -                                                                                             = 8 o.J 4 + 5 . 2 ",
"= ; : 8 8 a o.e -                                                                                             = 9 o.J P + i . 2 ",
"= ; : 8 8 a o.s -                                                                                             = q o.J ' $ & . 2 ",
"= ; : 8 8 j o.j -                                                                                             = q o.I K % ] . 2 ",
"= ; : 8 8 h o.l ;                                                                                             = w o.U + . X o : ",
"= ; : 8 8 h o.c :                                                                                             = e o.l x x x x = ",
"= ; : 8 8 l @.M :                                                                                             = e @.c > > : ; = ",
"= ; : 8 8 c @.N :                                                                                             = e >.W . . . r ; ",
"= ; : 8 8 c -.B :                                                                                             = e -.W @ @ @ x ; ",
"= ; : 8 8 M :.V :                                                                                             = s :.Y ) ( Z ~ ; ",
"= ; : 8 8 N 1.S 2                                                                                             = s 1.W y / C ~ ; ",
"= ; : 8 8 N 3.A 2                                                                                             = j 3.Q u Q D ~ ; ",
"= ; : 8 8 N 3.F 2                                                                                             = z 6.Q y Q Z T ; ",
"= ; : 8 8 N 6.G 2                                                                                             = z 7.Q _ [ t ^ ; ",
"= ; : 8 8 B 9.G 2                                                                                             = l e.~ D R S { ; ",
"= ; : 8 8 B e.H 2                                                                                             = l q.N 1 1 - * = ",
"= ; : 8 8 B q.H 2                                                                                             = l u.V 8 8 > - = ",
"= ; : 8 8 B t.H 2                                                                                             = l u.S 8 8 > ; = ",
"= ; : 8 8 B t.H 2                                                                                             = l u.S 8 8 > ; = ",
"= ; : 8 8 B q.H 2                                                                                             = l r.V 8 8 > ; = ",
"= ; : 8 8 B e.H 2                                                                                             = l e.V 8 8 > ; = ",
"= ; : 8 8 B 7.G 2                                                                                             = l 9.V 8 8 > ; = ",
"= ; : 8 8 N 6.G 2                                                                                             = z 6.V 8 8 > ; = ",
"= ; : 8 8 N 3.F 2                                                                                             = j 3.B 8 8 > ; = ",
"= ; : 8 8 N 1.A 2                                                                                             = j <.B 8 8 > ; = ",
"= ; : 8 8 N 1.S 2                                                                                             # s 1.N 8 8 > ; = ",
"= ; : 8 8 M -.V 2                                                                                             # r -.N 8 8 > ; = ",
"= ; : 8 8 c -.N :                                                                                             # e -.N 8 8 > ; = ",
"= ; : 8 8 c @.N :                                                                                             # e @.c 8 8 > ; = ",
"= ; : 8 8 l o.M ;                                                                                             # e @.c 8 8 > ; = ",
"= ; : 8 8 h o.c -                                                                                               w o.l 8 8 > ; = ",
"= ; : 8 8 h o.l -                                                                                               q o.h 8 8 > ; = ",
"@ ; : 8 8 j o.j -                                                                                               q o.h 8 8 > ; = ",
"@ ; : 8 8 a o.s -                                                                                               9 o.j 8 8 > ; = ",
"@ ; : 8 8 a o.e -                                                                                               9 o.a 8 8 > ; = ",
"@ = : 8 8 e o.e -                                                                                               8 o.a 8 8 > ; = ",
"@ # : 8 8 e o.w -                                                                                               6 o.e 8 8 > ; = ",
"@ # - 8 8 w @.q -                                                                                               2 @.9 8 8 > ; = ",
"@ # - 8 8 9 @.q -                                                                                               : @.7 8 8 > ; = ",
"@ # - 8 8 3 >.9 -                                                                                               ; >.3 1 8 > * = ",
"@ # - < < 1 -.8 -                                                                                               - -.1 1 2 > * @ ",
"@ # - < < < :.: -                                                                                               - :.1 1 1 - * @ ",
"@ # - < < 1 ,.; -                                                                                               - 1.1 1 1 - * @ ",
"@ # - < 1 1 e 0 }                                                                                               - 8 1 1 1 - * @ "
};
